<?xml version="1.0" encoding="utf-8" standalone="no"?>
<!DOCTYPE svg PUBLIC "-//W3C//DTD SVG 1.1//EN"
  "http://www.w3.org/Graphics/SVG/1.1/DTD/svg11.dtd">
<svg xmlns:xlink="http://www.w3.org/1999/xlink" width="864pt" height="432pt" viewBox="0 0 864 432" xmlns="http://www.w3.org/2000/svg" version="1.1">
 <metadata>
  <rdf:RDF xmlns:dc="http://purl.org/dc/elements/1.1/" xmlns:cc="http://creativecommons.org/ns#" xmlns:rdf="http://www.w3.org/1999/02/22-rdf-syntax-ns#">
   <cc:Work>
    <dc:type rdf:resource="http://purl.org/dc/dcmitype/StillImage"/>
    <dc:date>2024-08-10T00:45:18.252868</dc:date>
    <dc:format>image/svg+xml</dc:format>
    <dc:creator>
     <cc:Agent>
      <dc:title>Matplotlib v3.8.4, https://matplotlib.org/</dc:title>
     </cc:Agent>
    </dc:creator>
   </cc:Work>
  </rdf:RDF>
 </metadata>
 <defs>
  <style type="text/css">*{stroke-linejoin: round; stroke-linecap: butt}</style>
 </defs>
 <g id="figure_1">
  <g id="patch_1">
   <path d="M 0 432 
L 864 432 
L 864 0 
L 0 0 
z
" style="fill: #ffffff"/>
  </g>
  <g id="axes_1">
   <g id="patch_2">
    <path d="M 108 384.48 
L 777.6 384.48 
L 777.6 51.84 
L 108 51.84 
z
" style="fill: #ffffff"/>
   </g>
   <g id="PolyCollection_1">
    <path d="M 199.370025 218.16 
L 199.370025 218.635484 
L 199.979361 223.389291 
L 200.588698 228.137926 
L 201.198034 232.876695 
L 201.807371 237.600911 
L 202.416708 242.305903 
L 203.026044 246.987018 
L 203.635381 251.639627 
L 204.244717 256.25913 
L 204.854054 260.840958 
L 205.463391 265.380581 
L 206.072727 269.87351 
L 206.682064 274.315301 
L 207.2914 278.701563 
L 207.900737 283.027958 
L 208.510074 287.290208 
L 209.11941 291.484098 
L 209.728747 295.605481 
L 210.338084 299.650282 
L 210.94742 303.6145 
L 211.556757 307.494217 
L 212.166093 311.285594 
L 212.77543 314.984884 
L 213.384767 318.588428 
L 213.994103 322.092663 
L 214.60344 325.494124 
L 215.212776 328.789446 
L 215.822113 331.975372 
L 216.43145 335.048751 
L 217.040786 338.006544 
L 217.650123 340.845825 
L 218.259459 343.563789 
L 218.868796 346.157746 
L 219.478133 348.625131 
L 220.087469 350.963506 
L 220.696806 353.170557 
L 221.306143 355.244102 
L 221.915479 357.18209 
L 222.524816 358.982606 
L 223.134152 360.643868 
L 223.743489 362.164235 
L 224.352826 363.542202 
L 224.962162 364.776407 
L 225.571499 365.865629 
L 226.180835 366.808792 
L 226.790172 367.604963 
L 227.399509 368.253354 
L 228.008845 368.753325 
L 228.618182 369.10438 
L 229.227518 369.306173 
L 229.836855 369.358505 
L 230.446192 369.261323 
L 231.055528 369.014723 
L 231.664865 368.61895 
L 232.274201 368.074395 
L 232.883538 367.381596 
L 233.492875 366.541238 
L 234.102211 365.554153 
L 234.711548 364.421316 
L 235.320885 363.143847 
L 235.930221 361.723011 
L 236.539558 360.160212 
L 237.148894 358.456994 
L 237.758231 356.615044 
L 238.367568 354.636181 
L 238.976904 352.522363 
L 239.586241 350.27568 
L 240.195577 347.898353 
L 240.804914 345.392734 
L 241.414251 342.7613 
L 242.023587 340.006654 
L 242.632924 337.131519 
L 243.24226 334.138738 
L 243.851597 331.03127 
L 244.460934 327.81219 
L 245.07027 324.484679 
L 245.679607 321.052028 
L 246.288943 317.517632 
L 246.89828 313.884986 
L 247.507617 310.157681 
L 248.116953 306.339404 
L 248.72629 302.433931 
L 249.335627 298.445122 
L 249.944963 294.376923 
L 250.5543 290.233357 
L 251.163636 286.01852 
L 251.772973 281.736581 
L 252.38231 277.391774 
L 252.991646 272.988395 
L 253.600983 268.530799 
L 254.210319 264.023394 
L 254.819656 259.470636 
L 255.428993 254.877028 
L 256.038329 250.247112 
L 256.647666 245.585466 
L 257.257002 240.896701 
L 257.866339 236.185453 
L 258.475676 231.456379 
L 259.085012 226.714158 
L 259.694349 221.963478 
L 259.694349 218.16 
L 259.694349 218.16 
L 259.085012 218.16 
L 258.475676 218.16 
L 257.866339 218.16 
L 257.257002 218.16 
L 256.647666 218.16 
L 256.038329 218.16 
L 255.428993 218.16 
L 254.819656 218.16 
L 254.210319 218.16 
L 253.600983 218.16 
L 252.991646 218.16 
L 252.38231 218.16 
L 251.772973 218.16 
L 251.163636 218.16 
L 250.5543 218.16 
L 249.944963 218.16 
L 249.335627 218.16 
L 248.72629 218.16 
L 248.116953 218.16 
L 247.507617 218.16 
L 246.89828 218.16 
L 246.288943 218.16 
L 245.679607 218.16 
L 245.07027 218.16 
L 244.460934 218.16 
L 243.851597 218.16 
L 243.24226 218.16 
L 242.632924 218.16 
L 242.023587 218.16 
L 241.414251 218.16 
L 240.804914 218.16 
L 240.195577 218.16 
L 239.586241 218.16 
L 238.976904 218.16 
L 238.367568 218.16 
L 237.758231 218.16 
L 237.148894 218.16 
L 236.539558 218.16 
L 235.930221 218.16 
L 235.320885 218.16 
L 234.711548 218.16 
L 234.102211 218.16 
L 233.492875 218.16 
L 232.883538 218.16 
L 232.274201 218.16 
L 231.664865 218.16 
L 231.055528 218.16 
L 230.446192 218.16 
L 229.836855 218.16 
L 229.227518 218.16 
L 228.618182 218.16 
L 228.008845 218.16 
L 227.399509 218.16 
L 226.790172 218.16 
L 226.180835 218.16 
L 225.571499 218.16 
L 224.962162 218.16 
L 224.352826 218.16 
L 223.743489 218.16 
L 223.134152 218.16 
L 222.524816 218.16 
L 221.915479 218.16 
L 221.306143 218.16 
L 220.696806 218.16 
L 220.087469 218.16 
L 219.478133 218.16 
L 218.868796 218.16 
L 218.259459 218.16 
L 217.650123 218.16 
L 217.040786 218.16 
L 216.43145 218.16 
L 215.822113 218.16 
L 215.212776 218.16 
L 214.60344 218.16 
L 213.994103 218.16 
L 213.384767 218.16 
L 212.77543 218.16 
L 212.166093 218.16 
L 211.556757 218.16 
L 210.94742 218.16 
L 210.338084 218.16 
L 209.728747 218.16 
L 209.11941 218.16 
L 208.510074 218.16 
L 207.900737 218.16 
L 207.2914 218.16 
L 206.682064 218.16 
L 206.072727 218.16 
L 205.463391 218.16 
L 204.854054 218.16 
L 204.244717 218.16 
L 203.635381 218.16 
L 203.026044 218.16 
L 202.416708 218.16 
L 201.807371 218.16 
L 201.198034 218.16 
L 200.588698 218.16 
L 199.979361 218.16 
L 199.370025 218.16 
z
" clip-path="url(#p40675b0ef5)" style="fill: #00008b; fill-opacity: 0.3; stroke: #00008b; stroke-opacity: 0.3"/>
    <path d="M 321.237346 218.16 
L 321.237346 219.586433 
L 321.846683 224.339582 
L 322.45602 229.086619 
L 323.065356 233.822852 
L 323.674693 238.543597 
L 324.284029 243.244185 
L 324.893366 247.919968 
L 325.502703 252.566323 
L 326.112039 257.178655 
L 326.721376 261.752403 
L 327.330713 266.283045 
L 327.940049 270.7661 
L 328.549386 275.197135 
L 329.158722 279.571769 
L 329.768059 283.885675 
L 330.377396 288.134588 
L 330.986732 292.314306 
L 331.596069 296.420697 
L 332.205405 300.449698 
L 332.814742 304.397328 
L 333.424079 308.25968 
L 334.033415 312.032938 
L 334.642752 315.713368 
L 335.252088 319.297332 
L 335.861425 322.781286 
L 336.470762 326.161785 
L 337.080098 329.435485 
L 337.689435 332.59915 
L 338.298771 335.649652 
L 338.908108 338.583972 
L 339.517445 341.399211 
L 340.126781 344.092584 
L 340.736118 346.661428 
L 341.345455 349.103203 
L 341.954791 351.415494 
L 342.564128 353.596014 
L 343.173464 355.642607 
L 343.782801 357.55325 
L 344.392138 359.326053 
L 345.001474 360.959263 
L 345.610811 362.451266 
L 346.220147 363.800585 
L 346.829484 365.005886 
L 347.438821 366.065979 
L 348.048157 366.979813 
L 348.657494 367.746486 
L 349.26683 368.36524 
L 349.876167 368.835462 
L 350.485504 369.156688 
L 351.09484 369.3286 
L 351.704177 369.351028 
L 352.313514 369.22395 
L 352.92285 368.947492 
L 353.532187 368.521926 
L 354.141523 367.947675 
L 354.75086 367.225304 
L 355.360197 366.35553 
L 355.969533 365.339212 
L 356.57887 364.177354 
L 357.188206 362.871107 
L 357.797543 361.421761 
L 358.40688 359.83075 
L 359.016216 358.099647 
L 359.625553 356.230163 
L 360.234889 354.224149 
L 360.844226 352.083586 
L 361.453563 349.810592 
L 362.062899 347.407415 
L 362.672236 344.876431 
L 363.281572 342.220143 
L 363.890909 339.441177 
L 364.500246 336.542281 
L 365.109582 333.526322 
L 365.718919 330.396283 
L 366.328256 327.155258 
L 366.937592 323.806453 
L 367.546929 320.353178 
L 368.156265 316.798849 
L 368.765602 313.146981 
L 369.374939 309.401184 
L 369.984275 305.565163 
L 370.593612 301.642711 
L 371.202948 297.637706 
L 371.812285 293.554109 
L 372.421622 289.395958 
L 373.030958 285.167366 
L 373.640295 280.872512 
L 374.249631 276.515645 
L 374.858968 272.101073 
L 375.468305 267.633161 
L 376.077641 263.116327 
L 376.686978 258.555037 
L 377.296314 253.953803 
L 377.905651 249.317174 
L 378.514988 244.649735 
L 379.124324 239.956101 
L 379.733661 235.240914 
L 380.342998 230.508837 
L 380.952334 225.764548 
L 381.561671 221.01274 
L 381.561671 218.16 
L 381.561671 218.16 
L 380.952334 218.16 
L 380.342998 218.16 
L 379.733661 218.16 
L 379.124324 218.16 
L 378.514988 218.16 
L 377.905651 218.16 
L 377.296314 218.16 
L 376.686978 218.16 
L 376.077641 218.16 
L 375.468305 218.16 
L 374.858968 218.16 
L 374.249631 218.16 
L 373.640295 218.16 
L 373.030958 218.16 
L 372.421622 218.16 
L 371.812285 218.16 
L 371.202948 218.16 
L 370.593612 218.16 
L 369.984275 218.16 
L 369.374939 218.16 
L 368.765602 218.16 
L 368.156265 218.16 
L 367.546929 218.16 
L 366.937592 218.16 
L 366.328256 218.16 
L 365.718919 218.16 
L 365.109582 218.16 
L 364.500246 218.16 
L 363.890909 218.16 
L 363.281572 218.16 
L 362.672236 218.16 
L 362.062899 218.16 
L 361.453563 218.16 
L 360.844226 218.16 
L 360.234889 218.16 
L 359.625553 218.16 
L 359.016216 218.16 
L 358.40688 218.16 
L 357.797543 218.16 
L 357.188206 218.16 
L 356.57887 218.16 
L 355.969533 218.16 
L 355.360197 218.16 
L 354.75086 218.16 
L 354.141523 218.16 
L 353.532187 218.16 
L 352.92285 218.16 
L 352.313514 218.16 
L 351.704177 218.16 
L 351.09484 218.16 
L 350.485504 218.16 
L 349.876167 218.16 
L 349.26683 218.16 
L 348.657494 218.16 
L 348.048157 218.16 
L 347.438821 218.16 
L 346.829484 218.16 
L 346.220147 218.16 
L 345.610811 218.16 
L 345.001474 218.16 
L 344.392138 218.16 
L 343.782801 218.16 
L 343.173464 218.16 
L 342.564128 218.16 
L 341.954791 218.16 
L 341.345455 218.16 
L 340.736118 218.16 
L 340.126781 218.16 
L 339.517445 218.16 
L 338.908108 218.16 
L 338.298771 218.16 
L 337.689435 218.16 
L 337.080098 218.16 
L 336.470762 218.16 
L 335.861425 218.16 
L 335.252088 218.16 
L 334.642752 218.16 
L 334.033415 218.16 
L 333.424079 218.16 
L 332.814742 218.16 
L 332.205405 218.16 
L 331.596069 218.16 
L 330.986732 218.16 
L 330.377396 218.16 
L 329.768059 218.16 
L 329.158722 218.16 
L 328.549386 218.16 
L 327.940049 218.16 
L 327.330713 218.16 
L 326.721376 218.16 
L 326.112039 218.16 
L 325.502703 218.16 
L 324.893366 218.16 
L 324.284029 218.16 
L 323.674693 218.16 
L 323.065356 218.16 
L 322.45602 218.16 
L 321.846683 218.16 
L 321.237346 218.16 
z
" clip-path="url(#p40675b0ef5)" style="fill: #00008b; fill-opacity: 0.3; stroke: #00008b; stroke-opacity: 0.3"/>
    <path d="M 443.104668 218.16 
L 443.104668 220.537326 
L 443.714005 225.289628 
L 444.323342 230.03488 
L 444.932678 234.76839 
L 445.542015 239.485476 
L 446.151351 244.181474 
L 446.760688 248.851741 
L 447.370025 253.491658 
L 447.979361 258.096637 
L 448.588698 262.662124 
L 449.198034 267.183606 
L 449.807371 271.65661 
L 450.416708 276.076713 
L 451.026044 280.439546 
L 451.635381 284.740793 
L 452.244717 288.976201 
L 452.854054 293.141582 
L 453.463391 297.232817 
L 454.072727 301.24586 
L 454.682064 305.176744 
L 455.2914 309.02158 
L 455.900737 312.776568 
L 456.510074 316.437993 
L 457.11941 320.002236 
L 457.728747 323.465771 
L 458.338084 326.825174 
L 458.94742 330.077123 
L 459.556757 333.218402 
L 460.166093 336.245905 
L 460.77543 339.156638 
L 461.384767 341.947722 
L 461.994103 344.616399 
L 462.60344 347.160028 
L 463.212776 349.576095 
L 463.822113 351.86221 
L 464.43145 354.016113 
L 465.040786 356.035674 
L 465.650123 357.918896 
L 466.259459 359.663916 
L 466.868796 361.26901 
L 467.478133 362.732589 
L 468.087469 364.053207 
L 468.696806 365.229557 
L 469.306143 366.260477 
L 469.915479 367.144947 
L 470.524816 367.882092 
L 471.134152 368.471184 
L 471.743489 368.911639 
L 472.352826 369.203023 
L 472.962162 369.345048 
L 473.571499 369.337571 
L 474.180835 369.180603 
L 474.790172 368.874296 
L 475.399509 368.418955 
L 476.008845 367.815029 
L 476.618182 367.063116 
L 477.227518 366.16396 
L 477.836855 365.118449 
L 478.446192 363.927617 
L 479.055528 362.592642 
L 479.664865 361.114843 
L 480.274201 359.495684 
L 480.883538 357.736763 
L 481.492875 355.839821 
L 482.102211 353.806734 
L 482.711548 351.639512 
L 483.320885 349.340297 
L 483.930221 346.911365 
L 484.539558 344.355116 
L 485.148894 341.674078 
L 485.758231 338.870902 
L 486.367568 335.948361 
L 486.976904 332.909344 
L 487.586241 329.756856 
L 488.195577 326.494015 
L 488.804914 323.124048 
L 489.414251 319.650286 
L 490.023587 316.076165 
L 490.632924 312.405219 
L 491.24226 308.641078 
L 491.851597 304.787464 
L 492.460934 300.848188 
L 493.07027 296.827146 
L 493.679607 292.728313 
L 494.288943 288.555742 
L 494.89828 284.313561 
L 495.507617 280.005963 
L 496.116953 275.637209 
L 496.72629 271.211617 
L 497.335627 266.733566 
L 497.944963 262.207482 
L 498.5543 257.637841 
L 499.163636 253.029163 
L 499.772973 248.386004 
L 500.38231 243.712956 
L 500.991646 239.014639 
L 501.600983 234.295701 
L 502.210319 229.560806 
L 502.819656 224.814638 
L 503.428993 220.061889 
L 503.428993 218.16 
L 503.428993 218.16 
L 502.819656 218.16 
L 502.210319 218.16 
L 501.600983 218.16 
L 500.991646 218.16 
L 500.38231 218.16 
L 499.772973 218.16 
L 499.163636 218.16 
L 498.5543 218.16 
L 497.944963 218.16 
L 497.335627 218.16 
L 496.72629 218.16 
L 496.116953 218.16 
L 495.507617 218.16 
L 494.89828 218.16 
L 494.288943 218.16 
L 493.679607 218.16 
L 493.07027 218.16 
L 492.460934 218.16 
L 491.851597 218.16 
L 491.24226 218.16 
L 490.632924 218.16 
L 490.023587 218.16 
L 489.414251 218.16 
L 488.804914 218.16 
L 488.195577 218.16 
L 487.586241 218.16 
L 486.976904 218.16 
L 486.367568 218.16 
L 485.758231 218.16 
L 485.148894 218.16 
L 484.539558 218.16 
L 483.930221 218.16 
L 483.320885 218.16 
L 482.711548 218.16 
L 482.102211 218.16 
L 481.492875 218.16 
L 480.883538 218.16 
L 480.274201 218.16 
L 479.664865 218.16 
L 479.055528 218.16 
L 478.446192 218.16 
L 477.836855 218.16 
L 477.227518 218.16 
L 476.618182 218.16 
L 476.008845 218.16 
L 475.399509 218.16 
L 474.790172 218.16 
L 474.180835 218.16 
L 473.571499 218.16 
L 472.962162 218.16 
L 472.352826 218.16 
L 471.743489 218.16 
L 471.134152 218.16 
L 470.524816 218.16 
L 469.915479 218.16 
L 469.306143 218.16 
L 468.696806 218.16 
L 468.087469 218.16 
L 467.478133 218.16 
L 466.868796 218.16 
L 466.259459 218.16 
L 465.650123 218.16 
L 465.040786 218.16 
L 464.43145 218.16 
L 463.822113 218.16 
L 463.212776 218.16 
L 462.60344 218.16 
L 461.994103 218.16 
L 461.384767 218.16 
L 460.77543 218.16 
L 460.166093 218.16 
L 459.556757 218.16 
L 458.94742 218.16 
L 458.338084 218.16 
L 457.728747 218.16 
L 457.11941 218.16 
L 456.510074 218.16 
L 455.900737 218.16 
L 455.2914 218.16 
L 454.682064 218.16 
L 454.072727 218.16 
L 453.463391 218.16 
L 452.854054 218.16 
L 452.244717 218.16 
L 451.635381 218.16 
L 451.026044 218.16 
L 450.416708 218.16 
L 449.807371 218.16 
L 449.198034 218.16 
L 448.588698 218.16 
L 447.979361 218.16 
L 447.370025 218.16 
L 446.760688 218.16 
L 446.151351 218.16 
L 445.542015 218.16 
L 444.932678 218.16 
L 444.323342 218.16 
L 443.714005 218.16 
L 443.104668 218.16 
z
" clip-path="url(#p40675b0ef5)" style="fill: #00008b; fill-opacity: 0.3; stroke: #00008b; stroke-opacity: 0.3"/>
    <path d="M 564.97199 218.16 
L 564.97199 221.488125 
L 565.581327 226.239393 
L 566.190663 230.982672 
L 566.8 235.71327 
L 567.409337 240.426511 
L 568.018673 245.117734 
L 568.62801 249.782299 
L 569.237346 254.415595 
L 569.846683 259.013039 
L 570.45602 263.570085 
L 571.065356 268.082227 
L 571.674693 272.545003 
L 572.284029 276.954 
L 572.893366 281.304859 
L 573.502703 285.593276 
L 574.112039 289.815012 
L 574.721376 293.965891 
L 575.330713 298.041809 
L 575.940049 302.038735 
L 576.549386 305.952718 
L 577.158722 309.779886 
L 577.768059 313.516455 
L 578.377396 317.15873 
L 578.986732 320.70311 
L 579.596069 324.14609 
L 580.205405 327.484265 
L 580.814742 330.714333 
L 581.424079 333.833102 
L 582.033415 336.837487 
L 582.642752 339.724516 
L 583.252088 342.491336 
L 583.861425 345.135211 
L 584.470762 347.653525 
L 585.080098 350.043788 
L 585.689435 352.303638 
L 586.298771 354.430839 
L 586.908108 356.423287 
L 587.517445 358.279013 
L 588.126781 359.996182 
L 588.736118 361.573095 
L 589.345455 363.008193 
L 589.954791 364.300058 
L 590.564128 365.44741 
L 591.173464 366.449117 
L 591.782801 367.304187 
L 592.392138 368.011776 
L 593.001474 368.571182 
L 593.610811 368.981853 
L 594.220147 369.243384 
L 594.829484 369.355514 
L 595.438821 369.318134 
L 596.048157 369.131281 
L 596.657494 368.795138 
L 597.26683 368.310039 
L 597.876167 367.676464 
L 598.485504 366.895038 
L 599.09484 365.966535 
L 599.704177 364.891872 
L 600.313514 363.672113 
L 600.92285 362.308463 
L 601.532187 360.802271 
L 602.141523 359.155027 
L 602.75086 357.368358 
L 603.360197 355.444033 
L 603.969533 353.383954 
L 604.57887 351.190157 
L 605.188206 348.864813 
L 605.797543 346.410221 
L 606.40688 343.828808 
L 607.016216 341.123126 
L 607.625553 338.295852 
L 608.234889 335.349781 
L 608.844226 332.287825 
L 609.453563 329.113014 
L 610.062899 325.828487 
L 610.672236 322.43749 
L 611.281572 318.943379 
L 611.890909 315.349607 
L 612.500246 311.659728 
L 613.109582 307.877392 
L 613.718919 304.006338 
L 614.328256 300.050395 
L 614.937592 296.013474 
L 615.546929 291.899567 
L 616.156265 287.712742 
L 616.765602 283.457139 
L 617.374939 279.136967 
L 617.984275 274.756498 
L 618.593612 270.320063 
L 619.202948 265.832049 
L 619.812285 261.296894 
L 620.421622 256.719083 
L 621.030958 252.103143 
L 621.640295 247.453638 
L 622.249631 242.775165 
L 622.858968 238.072352 
L 623.468305 233.349849 
L 624.077641 228.612324 
L 624.686978 223.864464 
L 625.296314 219.110963 
L 625.296314 218.16 
L 625.296314 218.16 
L 624.686978 218.16 
L 624.077641 218.16 
L 623.468305 218.16 
L 622.858968 218.16 
L 622.249631 218.16 
L 621.640295 218.16 
L 621.030958 218.16 
L 620.421622 218.16 
L 619.812285 218.16 
L 619.202948 218.16 
L 618.593612 218.16 
L 617.984275 218.16 
L 617.374939 218.16 
L 616.765602 218.16 
L 616.156265 218.16 
L 615.546929 218.16 
L 614.937592 218.16 
L 614.328256 218.16 
L 613.718919 218.16 
L 613.109582 218.16 
L 612.500246 218.16 
L 611.890909 218.16 
L 611.281572 218.16 
L 610.672236 218.16 
L 610.062899 218.16 
L 609.453563 218.16 
L 608.844226 218.16 
L 608.234889 218.16 
L 607.625553 218.16 
L 607.016216 218.16 
L 606.40688 218.16 
L 605.797543 218.16 
L 605.188206 218.16 
L 604.57887 218.16 
L 603.969533 218.16 
L 603.360197 218.16 
L 602.75086 218.16 
L 602.141523 218.16 
L 601.532187 218.16 
L 600.92285 218.16 
L 600.313514 218.16 
L 599.704177 218.16 
L 599.09484 218.16 
L 598.485504 218.16 
L 597.876167 218.16 
L 597.26683 218.16 
L 596.657494 218.16 
L 596.048157 218.16 
L 595.438821 218.16 
L 594.829484 218.16 
L 594.220147 218.16 
L 593.610811 218.16 
L 593.001474 218.16 
L 592.392138 218.16 
L 591.782801 218.16 
L 591.173464 218.16 
L 590.564128 218.16 
L 589.954791 218.16 
L 589.345455 218.16 
L 588.736118 218.16 
L 588.126781 218.16 
L 587.517445 218.16 
L 586.908108 218.16 
L 586.298771 218.16 
L 585.689435 218.16 
L 585.080098 218.16 
L 584.470762 218.16 
L 583.861425 218.16 
L 583.252088 218.16 
L 582.642752 218.16 
L 582.033415 218.16 
L 581.424079 218.16 
L 580.814742 218.16 
L 580.205405 218.16 
L 579.596069 218.16 
L 578.986732 218.16 
L 578.377396 218.16 
L 577.768059 218.16 
L 577.158722 218.16 
L 576.549386 218.16 
L 575.940049 218.16 
L 575.330713 218.16 
L 574.721376 218.16 
L 574.112039 218.16 
L 573.502703 218.16 
L 572.893366 218.16 
L 572.284029 218.16 
L 571.674693 218.16 
L 571.065356 218.16 
L 570.45602 218.16 
L 569.846683 218.16 
L 569.237346 218.16 
L 568.62801 218.16 
L 568.018673 218.16 
L 567.409337 218.16 
L 566.8 218.16 
L 566.190663 218.16 
L 565.581327 218.16 
L 564.97199 218.16 
z
" clip-path="url(#p40675b0ef5)" style="fill: #00008b; fill-opacity: 0.3; stroke: #00008b; stroke-opacity: 0.3"/>
    <path d="M 686.839312 218.16 
L 686.839312 222.438793 
L 687.448649 227.188838 
L 688.057985 231.929956 
L 688.667322 236.657457 
L 689.276658 241.366666 
L 689.885995 246.052928 
L 690.495332 250.711607 
L 691.104668 255.338098 
L 691.714005 259.927825 
L 692.323342 264.476249 
L 692.932678 268.978873 
L 693.542015 273.431245 
L 694.151351 277.828962 
L 694.760688 282.167674 
L 695.370025 286.443093 
L 695.979361 290.650989 
L 696.588698 294.787201 
L 697.198034 298.847641 
L 697.807371 302.828292 
L 698.416708 306.725219 
L 699.026044 310.534567 
L 699.635381 314.25257 
L 700.244717 317.875552 
L 700.854054 321.399929 
L 701.463391 324.822216 
L 702.072727 328.139031 
L 702.682064 331.347091 
L 703.2914 334.443226 
L 703.900737 337.424374 
L 704.510074 340.287586 
L 705.11941 343.030032 
L 705.728747 345.649 
L 706.338084 348.141899 
L 706.94742 350.506265 
L 707.556757 352.739759 
L 708.166093 354.840173 
L 708.77543 356.805431 
L 709.384767 358.633588 
L 709.994103 360.322837 
L 710.60344 361.871507 
L 711.212776 363.278068 
L 711.822113 364.541127 
L 712.43145 365.659437 
L 713.040786 366.631891 
L 713.650123 367.457528 
L 714.259459 368.135531 
L 714.868796 368.66523 
L 715.478133 369.046101 
L 716.087469 369.277767 
L 716.696806 369.36 
L 717.306143 369.292718 
L 717.915479 369.075987 
L 718.524816 368.710022 
L 719.134152 368.195185 
L 719.743489 367.531984 
L 720.352826 366.721076 
L 720.962162 365.763263 
L 721.571499 364.659492 
L 722.180835 363.410853 
L 722.790172 362.018582 
L 723.399509 360.484056 
L 724.008845 358.808792 
L 724.618182 356.994447 
L 725.227518 355.042814 
L 725.836855 352.955824 
L 726.446192 350.735541 
L 727.055528 348.384159 
L 727.664865 345.904004 
L 728.274201 343.297529 
L 728.883538 340.567311 
L 729.492875 337.71605 
L 730.102211 334.746565 
L 730.711548 331.661793 
L 731.320885 328.464784 
L 731.930221 325.158699 
L 732.539558 321.746808 
L 733.148894 318.232485 
L 733.758231 314.619204 
L 734.367568 310.910539 
L 734.976904 307.110157 
L 735.586241 303.221817 
L 736.195577 299.249362 
L 736.804914 295.196722 
L 737.414251 291.067904 
L 738.023587 286.86699 
L 738.632924 282.598135 
L 739.24226 278.265559 
L 739.851597 273.873549 
L 740.460934 269.426445 
L 741.07027 264.928646 
L 741.679607 260.3846 
L 742.288943 255.7988 
L 742.89828 251.17578 
L 743.507617 246.520113 
L 744.116953 241.836402 
L 744.72629 237.129278 
L 745.335627 232.403396 
L 745.944963 227.663429 
L 746.5543 222.914065 
L 747.163636 218.16 
L 747.163636 218.16 
L 747.163636 218.16 
L 746.5543 218.16 
L 745.944963 218.16 
L 745.335627 218.16 
L 744.72629 218.16 
L 744.116953 218.16 
L 743.507617 218.16 
L 742.89828 218.16 
L 742.288943 218.16 
L 741.679607 218.16 
L 741.07027 218.16 
L 740.460934 218.16 
L 739.851597 218.16 
L 739.24226 218.16 
L 738.632924 218.16 
L 738.023587 218.16 
L 737.414251 218.16 
L 736.804914 218.16 
L 736.195577 218.16 
L 735.586241 218.16 
L 734.976904 218.16 
L 734.367568 218.16 
L 733.758231 218.16 
L 733.148894 218.16 
L 732.539558 218.16 
L 731.930221 218.16 
L 731.320885 218.16 
L 730.711548 218.16 
L 730.102211 218.16 
L 729.492875 218.16 
L 728.883538 218.16 
L 728.274201 218.16 
L 727.664865 218.16 
L 727.055528 218.16 
L 726.446192 218.16 
L 725.836855 218.16 
L 725.227518 218.16 
L 724.618182 218.16 
L 724.008845 218.16 
L 723.399509 218.16 
L 722.790172 218.16 
L 722.180835 218.16 
L 721.571499 218.16 
L 720.962162 218.16 
L 720.352826 218.16 
L 719.743489 218.16 
L 719.134152 218.16 
L 718.524816 218.16 
L 717.915479 218.16 
L 717.306143 218.16 
L 716.696806 218.16 
L 716.087469 218.16 
L 715.478133 218.16 
L 714.868796 218.16 
L 714.259459 218.16 
L 713.650123 218.16 
L 713.040786 218.16 
L 712.43145 218.16 
L 711.822113 218.16 
L 711.212776 218.16 
L 710.60344 218.16 
L 709.994103 218.16 
L 709.384767 218.16 
L 708.77543 218.16 
L 708.166093 218.16 
L 707.556757 218.16 
L 706.94742 218.16 
L 706.338084 218.16 
L 705.728747 218.16 
L 705.11941 218.16 
L 704.510074 218.16 
L 703.900737 218.16 
L 703.2914 218.16 
L 702.682064 218.16 
L 702.072727 218.16 
L 701.463391 218.16 
L 700.854054 218.16 
L 700.244717 218.16 
L 699.635381 218.16 
L 699.026044 218.16 
L 698.416708 218.16 
L 697.807371 218.16 
L 697.198034 218.16 
L 696.588698 218.16 
L 695.979361 218.16 
L 695.370025 218.16 
L 694.760688 218.16 
L 694.151351 218.16 
L 693.542015 218.16 
L 692.932678 218.16 
L 692.323342 218.16 
L 691.714005 218.16 
L 691.104668 218.16 
L 690.495332 218.16 
L 689.885995 218.16 
L 689.276658 218.16 
L 688.667322 218.16 
L 688.057985 218.16 
L 687.448649 218.16 
L 686.839312 218.16 
z
" clip-path="url(#p40675b0ef5)" style="fill: #00008b; fill-opacity: 0.3; stroke: #00008b; stroke-opacity: 0.3"/>
   </g>
   <g id="PolyCollection_2">
    <path d="M 138.436364 218.16 
L 138.436364 218.16 
L 139.0457 213.405935 
L 139.655037 208.656571 
L 140.264373 203.916604 
L 140.87371 199.190722 
L 141.483047 194.483598 
L 142.092383 189.799887 
L 142.70172 185.14422 
L 143.311057 180.5212 
L 143.920393 175.9354 
L 144.52973 171.391354 
L 145.139066 166.893555 
L 145.748403 162.446451 
L 146.35774 158.054441 
L 146.967076 153.721865 
L 147.576413 149.45301 
L 148.185749 145.252096 
L 148.795086 141.123278 
L 149.404423 137.070638 
L 150.013759 133.098183 
L 150.623096 129.209843 
L 151.232432 125.409461 
L 151.841769 121.700796 
L 152.451106 118.087515 
L 153.060442 114.573192 
L 153.669779 111.161301 
L 154.279115 107.855216 
L 154.888452 104.658207 
L 155.497789 101.573435 
L 156.107125 98.60395 
L 156.716462 95.752689 
L 157.325799 93.022471 
L 157.935135 90.415996 
L 158.544472 87.935841 
L 159.153808 85.584459 
L 159.763145 83.364176 
L 160.372482 81.277186 
L 160.981818 79.325553 
L 161.591155 77.511208 
L 162.200491 75.835944 
L 162.809828 74.301418 
L 163.419165 72.909147 
L 164.028501 71.660508 
L 164.637838 70.556737 
L 165.247174 69.598924 
L 165.856511 68.788016 
L 166.465848 68.124815 
L 167.075184 67.609978 
L 167.684521 67.244013 
L 168.293857 67.027282 
L 168.903194 66.96 
L 169.512531 67.042233 
L 170.121867 67.273899 
L 170.731204 67.65477 
L 171.340541 68.184469 
L 171.949877 68.862472 
L 172.559214 69.688109 
L 173.16855 70.660563 
L 173.777887 71.778873 
L 174.387224 73.041932 
L 174.99656 74.448493 
L 175.605897 75.997163 
L 176.215233 77.686412 
L 176.82457 79.514569 
L 177.433907 81.479827 
L 178.043243 83.580241 
L 178.65258 85.813735 
L 179.261916 88.178101 
L 179.871253 90.671 
L 180.48059 93.289968 
L 181.089926 96.032414 
L 181.699263 98.895626 
L 182.3086 101.876774 
L 182.917936 104.972909 
L 183.527273 108.180969 
L 184.136609 111.497784 
L 184.745946 114.920071 
L 185.355283 118.444448 
L 185.964619 122.06743 
L 186.573956 125.785433 
L 187.183292 129.594781 
L 187.792629 133.491708 
L 188.401966 137.472359 
L 189.011302 141.532799 
L 189.620639 145.669011 
L 190.229975 149.876907 
L 190.839312 154.152326 
L 191.448649 158.491038 
L 192.057985 162.888755 
L 192.667322 167.341127 
L 193.276658 171.843751 
L 193.885995 176.392175 
L 194.495332 180.981902 
L 195.104668 185.608393 
L 195.714005 190.267072 
L 196.323342 194.953334 
L 196.932678 199.662543 
L 197.542015 204.390044 
L 198.151351 209.131162 
L 198.760688 213.881207 
L 198.760688 218.16 
L 198.760688 218.16 
L 198.151351 218.16 
L 197.542015 218.16 
L 196.932678 218.16 
L 196.323342 218.16 
L 195.714005 218.16 
L 195.104668 218.16 
L 194.495332 218.16 
L 193.885995 218.16 
L 193.276658 218.16 
L 192.667322 218.16 
L 192.057985 218.16 
L 191.448649 218.16 
L 190.839312 218.16 
L 190.229975 218.16 
L 189.620639 218.16 
L 189.011302 218.16 
L 188.401966 218.16 
L 187.792629 218.16 
L 187.183292 218.16 
L 186.573956 218.16 
L 185.964619 218.16 
L 185.355283 218.16 
L 184.745946 218.16 
L 184.136609 218.16 
L 183.527273 218.16 
L 182.917936 218.16 
L 182.3086 218.16 
L 181.699263 218.16 
L 181.089926 218.16 
L 180.48059 218.16 
L 179.871253 218.16 
L 179.261916 218.16 
L 178.65258 218.16 
L 178.043243 218.16 
L 177.433907 218.16 
L 176.82457 218.16 
L 176.215233 218.16 
L 175.605897 218.16 
L 174.99656 218.16 
L 174.387224 218.16 
L 173.777887 218.16 
L 173.16855 218.16 
L 172.559214 218.16 
L 171.949877 218.16 
L 171.340541 218.16 
L 170.731204 218.16 
L 170.121867 218.16 
L 169.512531 218.16 
L 168.903194 218.16 
L 168.293857 218.16 
L 167.684521 218.16 
L 167.075184 218.16 
L 166.465848 218.16 
L 165.856511 218.16 
L 165.247174 218.16 
L 164.637838 218.16 
L 164.028501 218.16 
L 163.419165 218.16 
L 162.809828 218.16 
L 162.200491 218.16 
L 161.591155 218.16 
L 160.981818 218.16 
L 160.372482 218.16 
L 159.763145 218.16 
L 159.153808 218.16 
L 158.544472 218.16 
L 157.935135 218.16 
L 157.325799 218.16 
L 156.716462 218.16 
L 156.107125 218.16 
L 155.497789 218.16 
L 154.888452 218.16 
L 154.279115 218.16 
L 153.669779 218.16 
L 153.060442 218.16 
L 152.451106 218.16 
L 151.841769 218.16 
L 151.232432 218.16 
L 150.623096 218.16 
L 150.013759 218.16 
L 149.404423 218.16 
L 148.795086 218.16 
L 148.185749 218.16 
L 147.576413 218.16 
L 146.967076 218.16 
L 146.35774 218.16 
L 145.748403 218.16 
L 145.139066 218.16 
L 144.52973 218.16 
L 143.920393 218.16 
L 143.311057 218.16 
L 142.70172 218.16 
L 142.092383 218.16 
L 141.483047 218.16 
L 140.87371 218.16 
L 140.264373 218.16 
L 139.655037 218.16 
L 139.0457 218.16 
L 138.436364 218.16 
z
" clip-path="url(#p40675b0ef5)" style="fill: #87ceeb; fill-opacity: 0.2; stroke: #87ceeb; stroke-opacity: 0.2"/>
    <path d="M 260.303686 218.16 
L 260.303686 217.209037 
L 260.913022 212.455536 
L 261.522359 207.707676 
L 262.131695 202.970151 
L 262.741032 198.247648 
L 263.350369 193.544835 
L 263.959705 188.866362 
L 264.569042 184.216857 
L 265.178378 179.600917 
L 265.787715 175.023106 
L 266.397052 170.487951 
L 267.006388 165.999937 
L 267.615725 161.563502 
L 268.225061 157.183033 
L 268.834398 152.862861 
L 269.443735 148.607258 
L 270.053071 144.420433 
L 270.662408 140.306526 
L 271.271744 136.269605 
L 271.881081 132.313662 
L 272.490418 128.442608 
L 273.099754 124.660272 
L 273.709091 120.970393 
L 274.318428 117.376621 
L 274.927764 113.88251 
L 275.537101 110.491513 
L 276.146437 107.206986 
L 276.755774 104.032175 
L 277.365111 100.970219 
L 277.974447 98.024148 
L 278.583784 95.196874 
L 279.19312 92.491192 
L 279.802457 89.909779 
L 280.411794 87.455187 
L 281.02113 85.129843 
L 281.630467 82.936046 
L 282.239803 80.875967 
L 282.84914 78.951642 
L 283.458477 77.164973 
L 284.067813 75.517729 
L 284.67715 74.011537 
L 285.286486 72.647887 
L 285.895823 71.428128 
L 286.50516 70.353465 
L 287.114496 69.424962 
L 287.723833 68.643536 
L 288.33317 68.009961 
L 288.942506 67.524862 
L 289.551843 67.188719 
L 290.161179 67.001866 
L 290.770516 66.964486 
L 291.379853 67.076616 
L 291.989189 67.338147 
L 292.598526 67.748818 
L 293.207862 68.308224 
L 293.817199 69.015813 
L 294.426536 69.870883 
L 295.035872 70.87259 
L 295.645209 72.019942 
L 296.254545 73.311807 
L 296.863882 74.746905 
L 297.473219 76.323818 
L 298.082555 78.040987 
L 298.691892 79.896713 
L 299.301229 81.889161 
L 299.910565 84.016362 
L 300.519902 86.276212 
L 301.129238 88.666475 
L 301.738575 91.184789 
L 302.347912 93.828664 
L 302.957248 96.595484 
L 303.566585 99.482513 
L 304.175921 102.486898 
L 304.785258 105.605667 
L 305.394595 108.835735 
L 306.003931 112.17391 
L 306.613268 115.61689 
L 307.222604 119.16127 
L 307.831941 122.803545 
L 308.441278 126.540114 
L 309.050614 130.367282 
L 309.659951 134.281265 
L 310.269287 138.278191 
L 310.878624 142.354109 
L 311.487961 146.504988 
L 312.097297 150.726724 
L 312.706634 155.015141 
L 313.315971 159.366 
L 313.925307 163.774997 
L 314.534644 168.237773 
L 315.14398 172.749915 
L 315.753317 177.306961 
L 316.362654 181.904405 
L 316.97199 186.537701 
L 317.581327 191.202266 
L 318.190663 195.893489 
L 318.8 200.60673 
L 319.409337 205.337328 
L 320.018673 210.080607 
L 320.62801 214.831875 
L 320.62801 218.16 
L 320.62801 218.16 
L 320.018673 218.16 
L 319.409337 218.16 
L 318.8 218.16 
L 318.190663 218.16 
L 317.581327 218.16 
L 316.97199 218.16 
L 316.362654 218.16 
L 315.753317 218.16 
L 315.14398 218.16 
L 314.534644 218.16 
L 313.925307 218.16 
L 313.315971 218.16 
L 312.706634 218.16 
L 312.097297 218.16 
L 311.487961 218.16 
L 310.878624 218.16 
L 310.269287 218.16 
L 309.659951 218.16 
L 309.050614 218.16 
L 308.441278 218.16 
L 307.831941 218.16 
L 307.222604 218.16 
L 306.613268 218.16 
L 306.003931 218.16 
L 305.394595 218.16 
L 304.785258 218.16 
L 304.175921 218.16 
L 303.566585 218.16 
L 302.957248 218.16 
L 302.347912 218.16 
L 301.738575 218.16 
L 301.129238 218.16 
L 300.519902 218.16 
L 299.910565 218.16 
L 299.301229 218.16 
L 298.691892 218.16 
L 298.082555 218.16 
L 297.473219 218.16 
L 296.863882 218.16 
L 296.254545 218.16 
L 295.645209 218.16 
L 295.035872 218.16 
L 294.426536 218.16 
L 293.817199 218.16 
L 293.207862 218.16 
L 292.598526 218.16 
L 291.989189 218.16 
L 291.379853 218.16 
L 290.770516 218.16 
L 290.161179 218.16 
L 289.551843 218.16 
L 288.942506 218.16 
L 288.33317 218.16 
L 287.723833 218.16 
L 287.114496 218.16 
L 286.50516 218.16 
L 285.895823 218.16 
L 285.286486 218.16 
L 284.67715 218.16 
L 284.067813 218.16 
L 283.458477 218.16 
L 282.84914 218.16 
L 282.239803 218.16 
L 281.630467 218.16 
L 281.02113 218.16 
L 280.411794 218.16 
L 279.802457 218.16 
L 279.19312 218.16 
L 278.583784 218.16 
L 277.974447 218.16 
L 277.365111 218.16 
L 276.755774 218.16 
L 276.146437 218.16 
L 275.537101 218.16 
L 274.927764 218.16 
L 274.318428 218.16 
L 273.709091 218.16 
L 273.099754 218.16 
L 272.490418 218.16 
L 271.881081 218.16 
L 271.271744 218.16 
L 270.662408 218.16 
L 270.053071 218.16 
L 269.443735 218.16 
L 268.834398 218.16 
L 268.225061 218.16 
L 267.615725 218.16 
L 267.006388 218.16 
L 266.397052 218.16 
L 265.787715 218.16 
L 265.178378 218.16 
L 264.569042 218.16 
L 263.959705 218.16 
L 263.350369 218.16 
L 262.741032 218.16 
L 262.131695 218.16 
L 261.522359 218.16 
L 260.913022 218.16 
L 260.303686 218.16 
z
" clip-path="url(#p40675b0ef5)" style="fill: #87ceeb; fill-opacity: 0.2; stroke: #87ceeb; stroke-opacity: 0.2"/>
    <path d="M 382.171007 218.16 
L 382.171007 216.258111 
L 382.780344 211.505362 
L 383.389681 206.759194 
L 383.999017 202.024299 
L 384.608354 197.305361 
L 385.21769 192.607044 
L 385.827027 187.933996 
L 386.436364 183.290837 
L 387.0457 178.682159 
L 387.655037 174.112518 
L 388.264373 169.586434 
L 388.87371 165.108383 
L 389.483047 160.682791 
L 390.092383 156.314037 
L 390.70172 152.006439 
L 391.311057 147.764258 
L 391.920393 143.591687 
L 392.52973 139.492854 
L 393.139066 135.471812 
L 393.748403 131.532536 
L 394.35774 127.678922 
L 394.967076 123.914781 
L 395.576413 120.243835 
L 396.185749 116.669714 
L 396.795086 113.195952 
L 397.404423 109.825985 
L 398.013759 106.563144 
L 398.623096 103.410656 
L 399.232432 100.371639 
L 399.841769 97.449098 
L 400.451106 94.645922 
L 401.060442 91.964884 
L 401.669779 89.408635 
L 402.279115 86.979703 
L 402.888452 84.680488 
L 403.497789 82.513266 
L 404.107125 80.480179 
L 404.716462 78.583237 
L 405.325799 76.824316 
L 405.935135 75.205157 
L 406.544472 73.727358 
L 407.153808 72.392383 
L 407.763145 71.201551 
L 408.372482 70.15604 
L 408.981818 69.256884 
L 409.591155 68.504971 
L 410.200491 67.901045 
L 410.809828 67.445704 
L 411.419165 67.139397 
L 412.028501 66.982429 
L 412.637838 66.974952 
L 413.247174 67.116977 
L 413.856511 67.408361 
L 414.465848 67.848816 
L 415.075184 68.437908 
L 415.684521 69.175053 
L 416.293857 70.059523 
L 416.903194 71.090443 
L 417.512531 72.266793 
L 418.121867 73.587411 
L 418.731204 75.05099 
L 419.340541 76.656084 
L 419.949877 78.401104 
L 420.559214 80.284326 
L 421.16855 82.303887 
L 421.777887 84.45779 
L 422.387224 86.743905 
L 422.99656 89.159972 
L 423.605897 91.703601 
L 424.215233 94.372278 
L 424.82457 97.163362 
L 425.433907 100.074095 
L 426.043243 103.101598 
L 426.65258 106.242877 
L 427.261916 109.494826 
L 427.871253 112.854229 
L 428.48059 116.317764 
L 429.089926 119.882007 
L 429.699263 123.543432 
L 430.3086 127.29842 
L 430.917936 131.143256 
L 431.527273 135.07414 
L 432.136609 139.087183 
L 432.745946 143.178418 
L 433.355283 147.343799 
L 433.964619 151.579207 
L 434.573956 155.880454 
L 435.183292 160.243287 
L 435.792629 164.66339 
L 436.401966 169.136394 
L 437.011302 173.657876 
L 437.620639 178.223363 
L 438.229975 182.828342 
L 438.839312 187.468259 
L 439.448649 192.138526 
L 440.057985 196.834524 
L 440.667322 201.55161 
L 441.276658 206.28512 
L 441.885995 211.030372 
L 442.495332 215.782674 
L 442.495332 218.16 
L 442.495332 218.16 
L 441.885995 218.16 
L 441.276658 218.16 
L 440.667322 218.16 
L 440.057985 218.16 
L 439.448649 218.16 
L 438.839312 218.16 
L 438.229975 218.16 
L 437.620639 218.16 
L 437.011302 218.16 
L 436.401966 218.16 
L 435.792629 218.16 
L 435.183292 218.16 
L 434.573956 218.16 
L 433.964619 218.16 
L 433.355283 218.16 
L 432.745946 218.16 
L 432.136609 218.16 
L 431.527273 218.16 
L 430.917936 218.16 
L 430.3086 218.16 
L 429.699263 218.16 
L 429.089926 218.16 
L 428.48059 218.16 
L 427.871253 218.16 
L 427.261916 218.16 
L 426.65258 218.16 
L 426.043243 218.16 
L 425.433907 218.16 
L 424.82457 218.16 
L 424.215233 218.16 
L 423.605897 218.16 
L 422.99656 218.16 
L 422.387224 218.16 
L 421.777887 218.16 
L 421.16855 218.16 
L 420.559214 218.16 
L 419.949877 218.16 
L 419.340541 218.16 
L 418.731204 218.16 
L 418.121867 218.16 
L 417.512531 218.16 
L 416.903194 218.16 
L 416.293857 218.16 
L 415.684521 218.16 
L 415.075184 218.16 
L 414.465848 218.16 
L 413.856511 218.16 
L 413.247174 218.16 
L 412.637838 218.16 
L 412.028501 218.16 
L 411.419165 218.16 
L 410.809828 218.16 
L 410.200491 218.16 
L 409.591155 218.16 
L 408.981818 218.16 
L 408.372482 218.16 
L 407.763145 218.16 
L 407.153808 218.16 
L 406.544472 218.16 
L 405.935135 218.16 
L 405.325799 218.16 
L 404.716462 218.16 
L 404.107125 218.16 
L 403.497789 218.16 
L 402.888452 218.16 
L 402.279115 218.16 
L 401.669779 218.16 
L 401.060442 218.16 
L 400.451106 218.16 
L 399.841769 218.16 
L 399.232432 218.16 
L 398.623096 218.16 
L 398.013759 218.16 
L 397.404423 218.16 
L 396.795086 218.16 
L 396.185749 218.16 
L 395.576413 218.16 
L 394.967076 218.16 
L 394.35774 218.16 
L 393.748403 218.16 
L 393.139066 218.16 
L 392.52973 218.16 
L 391.920393 218.16 
L 391.311057 218.16 
L 390.70172 218.16 
L 390.092383 218.16 
L 389.483047 218.16 
L 388.87371 218.16 
L 388.264373 218.16 
L 387.655037 218.16 
L 387.0457 218.16 
L 386.436364 218.16 
L 385.827027 218.16 
L 385.21769 218.16 
L 384.608354 218.16 
L 383.999017 218.16 
L 383.389681 218.16 
L 382.780344 218.16 
L 382.171007 218.16 
z
" clip-path="url(#p40675b0ef5)" style="fill: #87ceeb; fill-opacity: 0.2; stroke: #87ceeb; stroke-opacity: 0.2"/>
    <path d="M 504.038329 218.16 
L 504.038329 215.30726 
L 504.647666 210.555452 
L 505.257002 205.811163 
L 505.866339 201.079086 
L 506.475676 196.363899 
L 507.085012 191.670265 
L 507.694349 187.002826 
L 508.303686 182.366197 
L 508.913022 177.764963 
L 509.522359 173.203673 
L 510.131695 168.686839 
L 510.741032 164.218927 
L 511.350369 159.804355 
L 511.959705 155.447488 
L 512.569042 151.152634 
L 513.178378 146.924042 
L 513.787715 142.765891 
L 514.397052 138.682294 
L 515.006388 134.677289 
L 515.615725 130.754837 
L 516.225061 126.918816 
L 516.834398 123.173019 
L 517.443735 119.521151 
L 518.053071 115.966822 
L 518.662408 112.513547 
L 519.271744 109.164742 
L 519.881081 105.923717 
L 520.490418 102.793678 
L 521.099754 99.777719 
L 521.709091 96.878823 
L 522.318428 94.099857 
L 522.927764 91.443569 
L 523.537101 88.912585 
L 524.146437 86.509408 
L 524.755774 84.236414 
L 525.365111 82.095851 
L 525.974447 80.089837 
L 526.583784 78.220353 
L 527.19312 76.48925 
L 527.802457 74.898239 
L 528.411794 73.448893 
L 529.02113 72.142646 
L 529.630467 70.980788 
L 530.239803 69.96447 
L 530.84914 69.094696 
L 531.458477 68.372325 
L 532.067813 67.798074 
L 532.67715 67.372508 
L 533.286486 67.09605 
L 533.895823 66.968972 
L 534.50516 66.9914 
L 535.114496 67.163312 
L 535.723833 67.484538 
L 536.33317 67.95476 
L 536.942506 68.573514 
L 537.551843 69.340187 
L 538.161179 70.254021 
L 538.770516 71.314114 
L 539.379853 72.519415 
L 539.989189 73.868734 
L 540.598526 75.360737 
L 541.207862 76.993947 
L 541.817199 78.76675 
L 542.426536 80.677393 
L 543.035872 82.723986 
L 543.645209 84.904506 
L 544.254545 87.216797 
L 544.863882 89.658572 
L 545.473219 92.227416 
L 546.082555 94.920789 
L 546.691892 97.736028 
L 547.301229 100.670348 
L 547.910565 103.72085 
L 548.519902 106.884515 
L 549.129238 110.158215 
L 549.738575 113.538714 
L 550.347912 117.022668 
L 550.957248 120.606632 
L 551.566585 124.287062 
L 552.175921 128.06032 
L 552.785258 131.922672 
L 553.394595 135.870302 
L 554.003931 139.899303 
L 554.613268 144.005694 
L 555.222604 148.185412 
L 555.831941 152.434325 
L 556.441278 156.748231 
L 557.050614 161.122865 
L 557.659951 165.5539 
L 558.269287 170.036955 
L 558.878624 174.567597 
L 559.487961 179.141345 
L 560.097297 183.753677 
L 560.706634 188.400032 
L 561.315971 193.075815 
L 561.925307 197.776403 
L 562.534644 202.497148 
L 563.14398 207.233381 
L 563.753317 211.980418 
L 564.362654 216.733567 
L 564.362654 218.16 
L 564.362654 218.16 
L 563.753317 218.16 
L 563.14398 218.16 
L 562.534644 218.16 
L 561.925307 218.16 
L 561.315971 218.16 
L 560.706634 218.16 
L 560.097297 218.16 
L 559.487961 218.16 
L 558.878624 218.16 
L 558.269287 218.16 
L 557.659951 218.16 
L 557.050614 218.16 
L 556.441278 218.16 
L 555.831941 218.16 
L 555.222604 218.16 
L 554.613268 218.16 
L 554.003931 218.16 
L 553.394595 218.16 
L 552.785258 218.16 
L 552.175921 218.16 
L 551.566585 218.16 
L 550.957248 218.16 
L 550.347912 218.16 
L 549.738575 218.16 
L 549.129238 218.16 
L 548.519902 218.16 
L 547.910565 218.16 
L 547.301229 218.16 
L 546.691892 218.16 
L 546.082555 218.16 
L 545.473219 218.16 
L 544.863882 218.16 
L 544.254545 218.16 
L 543.645209 218.16 
L 543.035872 218.16 
L 542.426536 218.16 
L 541.817199 218.16 
L 541.207862 218.16 
L 540.598526 218.16 
L 539.989189 218.16 
L 539.379853 218.16 
L 538.770516 218.16 
L 538.161179 218.16 
L 537.551843 218.16 
L 536.942506 218.16 
L 536.33317 218.16 
L 535.723833 218.16 
L 535.114496 218.16 
L 534.50516 218.16 
L 533.895823 218.16 
L 533.286486 218.16 
L 532.67715 218.16 
L 532.067813 218.16 
L 531.458477 218.16 
L 530.84914 218.16 
L 530.239803 218.16 
L 529.630467 218.16 
L 529.02113 218.16 
L 528.411794 218.16 
L 527.802457 218.16 
L 527.19312 218.16 
L 526.583784 218.16 
L 525.974447 218.16 
L 525.365111 218.16 
L 524.755774 218.16 
L 524.146437 218.16 
L 523.537101 218.16 
L 522.927764 218.16 
L 522.318428 218.16 
L 521.709091 218.16 
L 521.099754 218.16 
L 520.490418 218.16 
L 519.881081 218.16 
L 519.271744 218.16 
L 518.662408 218.16 
L 518.053071 218.16 
L 517.443735 218.16 
L 516.834398 218.16 
L 516.225061 218.16 
L 515.615725 218.16 
L 515.006388 218.16 
L 514.397052 218.16 
L 513.787715 218.16 
L 513.178378 218.16 
L 512.569042 218.16 
L 511.959705 218.16 
L 511.350369 218.16 
L 510.741032 218.16 
L 510.131695 218.16 
L 509.522359 218.16 
L 508.913022 218.16 
L 508.303686 218.16 
L 507.694349 218.16 
L 507.085012 218.16 
L 506.475676 218.16 
L 505.866339 218.16 
L 505.257002 218.16 
L 504.647666 218.16 
L 504.038329 218.16 
z
" clip-path="url(#p40675b0ef5)" style="fill: #87ceeb; fill-opacity: 0.2; stroke: #87ceeb; stroke-opacity: 0.2"/>
    <path d="M 625.905651 218.16 
L 625.905651 214.356522 
L 626.514988 209.605842 
L 627.124324 204.863621 
L 627.733661 200.134547 
L 628.342998 195.423299 
L 628.952334 190.734534 
L 629.561671 186.072888 
L 630.171007 181.442972 
L 630.780344 176.849364 
L 631.389681 172.296606 
L 631.999017 167.789201 
L 632.608354 163.331605 
L 633.21769 158.928226 
L 633.827027 154.583419 
L 634.436364 150.30148 
L 635.0457 146.086643 
L 635.655037 141.943077 
L 636.264373 137.874878 
L 636.87371 133.886069 
L 637.483047 129.980596 
L 638.092383 126.162319 
L 638.70172 122.435014 
L 639.311057 118.802368 
L 639.920393 115.267972 
L 640.52973 111.835321 
L 641.139066 108.50781 
L 641.748403 105.28873 
L 642.35774 102.181262 
L 642.967076 99.188481 
L 643.576413 96.313346 
L 644.185749 93.5587 
L 644.795086 90.927266 
L 645.404423 88.421647 
L 646.013759 86.04432 
L 646.623096 83.797637 
L 647.232432 81.683819 
L 647.841769 79.704956 
L 648.451106 77.863006 
L 649.060442 76.159788 
L 649.669779 74.596989 
L 650.279115 73.176153 
L 650.888452 71.898684 
L 651.497789 70.765847 
L 652.107125 69.778762 
L 652.716462 68.938404 
L 653.325799 68.245605 
L 653.935135 67.70105 
L 654.544472 67.305277 
L 655.153808 67.058677 
L 655.763145 66.961495 
L 656.372482 67.013827 
L 656.981818 67.21562 
L 657.591155 67.566675 
L 658.200491 68.066646 
L 658.809828 68.715037 
L 659.419165 69.511208 
L 660.028501 70.454371 
L 660.637838 71.543593 
L 661.247174 72.777798 
L 661.856511 74.155765 
L 662.465848 75.676132 
L 663.075184 77.337394 
L 663.684521 79.13791 
L 664.293857 81.075898 
L 664.903194 83.149443 
L 665.512531 85.356494 
L 666.121867 87.694869 
L 666.731204 90.162254 
L 667.340541 92.756211 
L 667.949877 95.474175 
L 668.559214 98.313456 
L 669.16855 101.271249 
L 669.777887 104.344628 
L 670.387224 107.530554 
L 670.99656 110.825876 
L 671.605897 114.227337 
L 672.215233 117.731572 
L 672.82457 121.335116 
L 673.433907 125.034406 
L 674.043243 128.825783 
L 674.65258 132.7055 
L 675.261916 136.669718 
L 675.871253 140.714519 
L 676.48059 144.835902 
L 677.089926 149.029792 
L 677.699263 153.292042 
L 678.3086 157.618437 
L 678.917936 162.004699 
L 679.527273 166.44649 
L 680.136609 170.939419 
L 680.745946 175.479042 
L 681.355283 180.06087 
L 681.964619 184.680373 
L 682.573956 189.332982 
L 683.183292 194.014097 
L 683.792629 198.719089 
L 684.401966 203.443305 
L 685.011302 208.182074 
L 685.620639 212.930709 
L 686.229975 217.684516 
L 686.229975 218.16 
L 686.229975 218.16 
L 685.620639 218.16 
L 685.011302 218.16 
L 684.401966 218.16 
L 683.792629 218.16 
L 683.183292 218.16 
L 682.573956 218.16 
L 681.964619 218.16 
L 681.355283 218.16 
L 680.745946 218.16 
L 680.136609 218.16 
L 679.527273 218.16 
L 678.917936 218.16 
L 678.3086 218.16 
L 677.699263 218.16 
L 677.089926 218.16 
L 676.48059 218.16 
L 675.871253 218.16 
L 675.261916 218.16 
L 674.65258 218.16 
L 674.043243 218.16 
L 673.433907 218.16 
L 672.82457 218.16 
L 672.215233 218.16 
L 671.605897 218.16 
L 670.99656 218.16 
L 670.387224 218.16 
L 669.777887 218.16 
L 669.16855 218.16 
L 668.559214 218.16 
L 667.949877 218.16 
L 667.340541 218.16 
L 666.731204 218.16 
L 666.121867 218.16 
L 665.512531 218.16 
L 664.903194 218.16 
L 664.293857 218.16 
L 663.684521 218.16 
L 663.075184 218.16 
L 662.465848 218.16 
L 661.856511 218.16 
L 661.247174 218.16 
L 660.637838 218.16 
L 660.028501 218.16 
L 659.419165 218.16 
L 658.809828 218.16 
L 658.200491 218.16 
L 657.591155 218.16 
L 656.981818 218.16 
L 656.372482 218.16 
L 655.763145 218.16 
L 655.153808 218.16 
L 654.544472 218.16 
L 653.935135 218.16 
L 653.325799 218.16 
L 652.716462 218.16 
L 652.107125 218.16 
L 651.497789 218.16 
L 650.888452 218.16 
L 650.279115 218.16 
L 649.669779 218.16 
L 649.060442 218.16 
L 648.451106 218.16 
L 647.841769 218.16 
L 647.232432 218.16 
L 646.623096 218.16 
L 646.013759 218.16 
L 645.404423 218.16 
L 644.795086 218.16 
L 644.185749 218.16 
L 643.576413 218.16 
L 642.967076 218.16 
L 642.35774 218.16 
L 641.748403 218.16 
L 641.139066 218.16 
L 640.52973 218.16 
L 639.920393 218.16 
L 639.311057 218.16 
L 638.70172 218.16 
L 638.092383 218.16 
L 637.483047 218.16 
L 636.87371 218.16 
L 636.264373 218.16 
L 635.655037 218.16 
L 635.0457 218.16 
L 634.436364 218.16 
L 633.827027 218.16 
L 633.21769 218.16 
L 632.608354 218.16 
L 631.999017 218.16 
L 631.389681 218.16 
L 630.780344 218.16 
L 630.171007 218.16 
L 629.561671 218.16 
L 628.952334 218.16 
L 628.342998 218.16 
L 627.733661 218.16 
L 627.124324 218.16 
L 626.514988 218.16 
L 625.905651 218.16 
z
" clip-path="url(#p40675b0ef5)" style="fill: #87ceeb; fill-opacity: 0.2; stroke: #87ceeb; stroke-opacity: 0.2"/>
   </g>
   <g id="matplotlib.axis_1">
    <g id="xtick_1">
     <g id="line2d_1">
      <path d="M 138.436364 384.48 
L 138.436364 51.84 
" clip-path="url(#p40675b0ef5)" style="fill: none; stroke: #b0b0b0; stroke-width: 0.8; stroke-linecap: square"/>
     </g>
     <g id="line2d_2">
      <defs>
       <path id="m4bfe53add3" d="M 0 0 
L 0 3.5 
" style="stroke: #000000; stroke-width: 0.8"/>
      </defs>
      <g>
       <use xlink:href="#m4bfe53add3" x="138.436364" y="384.48" style="stroke: #000000; stroke-width: 0.8"/>
      </g>
     </g>
     <g id="text_1">
      <!-- Monday -->
      <g transform="translate(118.69652 399.078438) scale(0.1 -0.1)">
       <defs>
        <path id="DejaVuSans-4d" d="M 628 4666 
L 1569 4666 
L 2759 1491 
L 3956 4666 
L 4897 4666 
L 4897 0 
L 4281 0 
L 4281 4097 
L 3078 897 
L 2444 897 
L 1241 4097 
L 1241 0 
L 628 0 
L 628 4666 
z
" transform="scale(0.015625)"/>
        <path id="DejaVuSans-6f" d="M 1959 3097 
Q 1497 3097 1228 2736 
Q 959 2375 959 1747 
Q 959 1119 1226 758 
Q 1494 397 1959 397 
Q 2419 397 2687 759 
Q 2956 1122 2956 1747 
Q 2956 2369 2687 2733 
Q 2419 3097 1959 3097 
z
M 1959 3584 
Q 2709 3584 3137 3096 
Q 3566 2609 3566 1747 
Q 3566 888 3137 398 
Q 2709 -91 1959 -91 
Q 1206 -91 779 398 
Q 353 888 353 1747 
Q 353 2609 779 3096 
Q 1206 3584 1959 3584 
z
" transform="scale(0.015625)"/>
        <path id="DejaVuSans-6e" d="M 3513 2113 
L 3513 0 
L 2938 0 
L 2938 2094 
Q 2938 2591 2744 2837 
Q 2550 3084 2163 3084 
Q 1697 3084 1428 2787 
Q 1159 2491 1159 1978 
L 1159 0 
L 581 0 
L 581 3500 
L 1159 3500 
L 1159 2956 
Q 1366 3272 1645 3428 
Q 1925 3584 2291 3584 
Q 2894 3584 3203 3211 
Q 3513 2838 3513 2113 
z
" transform="scale(0.015625)"/>
        <path id="DejaVuSans-64" d="M 2906 2969 
L 2906 4863 
L 3481 4863 
L 3481 0 
L 2906 0 
L 2906 525 
Q 2725 213 2448 61 
Q 2172 -91 1784 -91 
Q 1150 -91 751 415 
Q 353 922 353 1747 
Q 353 2572 751 3078 
Q 1150 3584 1784 3584 
Q 2172 3584 2448 3432 
Q 2725 3281 2906 2969 
z
M 947 1747 
Q 947 1113 1208 752 
Q 1469 391 1925 391 
Q 2381 391 2643 752 
Q 2906 1113 2906 1747 
Q 2906 2381 2643 2742 
Q 2381 3103 1925 3103 
Q 1469 3103 1208 2742 
Q 947 2381 947 1747 
z
" transform="scale(0.015625)"/>
        <path id="DejaVuSans-61" d="M 2194 1759 
Q 1497 1759 1228 1600 
Q 959 1441 959 1056 
Q 959 750 1161 570 
Q 1363 391 1709 391 
Q 2188 391 2477 730 
Q 2766 1069 2766 1631 
L 2766 1759 
L 2194 1759 
z
M 3341 1997 
L 3341 0 
L 2766 0 
L 2766 531 
Q 2569 213 2275 61 
Q 1981 -91 1556 -91 
Q 1019 -91 701 211 
Q 384 513 384 1019 
Q 384 1609 779 1909 
Q 1175 2209 1959 2209 
L 2766 2209 
L 2766 2266 
Q 2766 2663 2505 2880 
Q 2244 3097 1772 3097 
Q 1472 3097 1187 3025 
Q 903 2953 641 2809 
L 641 3341 
Q 956 3463 1253 3523 
Q 1550 3584 1831 3584 
Q 2591 3584 2966 3190 
Q 3341 2797 3341 1997 
z
" transform="scale(0.015625)"/>
        <path id="DejaVuSans-79" d="M 2059 -325 
Q 1816 -950 1584 -1140 
Q 1353 -1331 966 -1331 
L 506 -1331 
L 506 -850 
L 844 -850 
Q 1081 -850 1212 -737 
Q 1344 -625 1503 -206 
L 1606 56 
L 191 3500 
L 800 3500 
L 1894 763 
L 2988 3500 
L 3597 3500 
L 2059 -325 
z
" transform="scale(0.015625)"/>
       </defs>
       <use xlink:href="#DejaVuSans-4d"/>
       <use xlink:href="#DejaVuSans-6f" x="86.279297"/>
       <use xlink:href="#DejaVuSans-6e" x="147.460938"/>
       <use xlink:href="#DejaVuSans-64" x="210.839844"/>
       <use xlink:href="#DejaVuSans-61" x="274.316406"/>
       <use xlink:href="#DejaVuSans-79" x="335.595703"/>
      </g>
     </g>
    </g>
    <g id="xtick_2">
     <g id="line2d_3">
      <path d="M 260.181818 384.48 
L 260.181818 51.84 
" clip-path="url(#p40675b0ef5)" style="fill: none; stroke: #b0b0b0; stroke-width: 0.8; stroke-linecap: square"/>
     </g>
     <g id="line2d_4">
      <g>
       <use xlink:href="#m4bfe53add3" x="260.181818" y="384.48" style="stroke: #000000; stroke-width: 0.8"/>
      </g>
     </g>
     <g id="text_2">
      <!-- Tuesday -->
      <g transform="translate(239.836506 399.078438) scale(0.1 -0.1)">
       <defs>
        <path id="DejaVuSans-54" d="M -19 4666 
L 3928 4666 
L 3928 4134 
L 2272 4134 
L 2272 0 
L 1638 0 
L 1638 4134 
L -19 4134 
L -19 4666 
z
" transform="scale(0.015625)"/>
        <path id="DejaVuSans-75" d="M 544 1381 
L 544 3500 
L 1119 3500 
L 1119 1403 
Q 1119 906 1312 657 
Q 1506 409 1894 409 
Q 2359 409 2629 706 
Q 2900 1003 2900 1516 
L 2900 3500 
L 3475 3500 
L 3475 0 
L 2900 0 
L 2900 538 
Q 2691 219 2414 64 
Q 2138 -91 1772 -91 
Q 1169 -91 856 284 
Q 544 659 544 1381 
z
M 1991 3584 
L 1991 3584 
z
" transform="scale(0.015625)"/>
        <path id="DejaVuSans-65" d="M 3597 1894 
L 3597 1613 
L 953 1613 
Q 991 1019 1311 708 
Q 1631 397 2203 397 
Q 2534 397 2845 478 
Q 3156 559 3463 722 
L 3463 178 
Q 3153 47 2828 -22 
Q 2503 -91 2169 -91 
Q 1331 -91 842 396 
Q 353 884 353 1716 
Q 353 2575 817 3079 
Q 1281 3584 2069 3584 
Q 2775 3584 3186 3129 
Q 3597 2675 3597 1894 
z
M 3022 2063 
Q 3016 2534 2758 2815 
Q 2500 3097 2075 3097 
Q 1594 3097 1305 2825 
Q 1016 2553 972 2059 
L 3022 2063 
z
" transform="scale(0.015625)"/>
        <path id="DejaVuSans-73" d="M 2834 3397 
L 2834 2853 
Q 2591 2978 2328 3040 
Q 2066 3103 1784 3103 
Q 1356 3103 1142 2972 
Q 928 2841 928 2578 
Q 928 2378 1081 2264 
Q 1234 2150 1697 2047 
L 1894 2003 
Q 2506 1872 2764 1633 
Q 3022 1394 3022 966 
Q 3022 478 2636 193 
Q 2250 -91 1575 -91 
Q 1294 -91 989 -36 
Q 684 19 347 128 
L 347 722 
Q 666 556 975 473 
Q 1284 391 1588 391 
Q 1994 391 2212 530 
Q 2431 669 2431 922 
Q 2431 1156 2273 1281 
Q 2116 1406 1581 1522 
L 1381 1569 
Q 847 1681 609 1914 
Q 372 2147 372 2553 
Q 372 3047 722 3315 
Q 1072 3584 1716 3584 
Q 2034 3584 2315 3537 
Q 2597 3491 2834 3397 
z
" transform="scale(0.015625)"/>
       </defs>
       <use xlink:href="#DejaVuSans-54"/>
       <use xlink:href="#DejaVuSans-75" x="45.958984"/>
       <use xlink:href="#DejaVuSans-65" x="109.337891"/>
       <use xlink:href="#DejaVuSans-73" x="170.861328"/>
       <use xlink:href="#DejaVuSans-64" x="222.960938"/>
       <use xlink:href="#DejaVuSans-61" x="286.4375"/>
       <use xlink:href="#DejaVuSans-79" x="347.716797"/>
      </g>
     </g>
    </g>
    <g id="xtick_3">
     <g id="line2d_5">
      <path d="M 381.927273 384.48 
L 381.927273 51.84 
" clip-path="url(#p40675b0ef5)" style="fill: none; stroke: #b0b0b0; stroke-width: 0.8; stroke-linecap: square"/>
     </g>
     <g id="line2d_6">
      <g>
       <use xlink:href="#m4bfe53add3" x="381.927273" y="384.48" style="stroke: #000000; stroke-width: 0.8"/>
      </g>
     </g>
     <g id="text_3">
      <!-- Wednesday -->
      <g transform="translate(352.978835 399.078438) scale(0.1 -0.1)">
       <defs>
        <path id="DejaVuSans-57" d="M 213 4666 
L 850 4666 
L 1831 722 
L 2809 4666 
L 3519 4666 
L 4500 722 
L 5478 4666 
L 6119 4666 
L 4947 0 
L 4153 0 
L 3169 4050 
L 2175 0 
L 1381 0 
L 213 4666 
z
" transform="scale(0.015625)"/>
       </defs>
       <use xlink:href="#DejaVuSans-57"/>
       <use xlink:href="#DejaVuSans-65" x="93.001953"/>
       <use xlink:href="#DejaVuSans-64" x="154.525391"/>
       <use xlink:href="#DejaVuSans-6e" x="218.001953"/>
       <use xlink:href="#DejaVuSans-65" x="281.380859"/>
       <use xlink:href="#DejaVuSans-73" x="342.904297"/>
       <use xlink:href="#DejaVuSans-64" x="395.003906"/>
       <use xlink:href="#DejaVuSans-61" x="458.480469"/>
       <use xlink:href="#DejaVuSans-79" x="519.759766"/>
      </g>
     </g>
    </g>
    <g id="xtick_4">
     <g id="line2d_7">
      <path d="M 503.672727 384.48 
L 503.672727 51.84 
" clip-path="url(#p40675b0ef5)" style="fill: none; stroke: #b0b0b0; stroke-width: 0.8; stroke-linecap: square"/>
     </g>
     <g id="line2d_8">
      <g>
       <use xlink:href="#m4bfe53add3" x="503.672727" y="384.48" style="stroke: #000000; stroke-width: 0.8"/>
      </g>
     </g>
     <g id="text_4">
      <!-- Thursday -->
      <g transform="translate(480.423509 399.078438) scale(0.1 -0.1)">
       <defs>
        <path id="DejaVuSans-68" d="M 3513 2113 
L 3513 0 
L 2938 0 
L 2938 2094 
Q 2938 2591 2744 2837 
Q 2550 3084 2163 3084 
Q 1697 3084 1428 2787 
Q 1159 2491 1159 1978 
L 1159 0 
L 581 0 
L 581 4863 
L 1159 4863 
L 1159 2956 
Q 1366 3272 1645 3428 
Q 1925 3584 2291 3584 
Q 2894 3584 3203 3211 
Q 3513 2838 3513 2113 
z
" transform="scale(0.015625)"/>
        <path id="DejaVuSans-72" d="M 2631 2963 
Q 2534 3019 2420 3045 
Q 2306 3072 2169 3072 
Q 1681 3072 1420 2755 
Q 1159 2438 1159 1844 
L 1159 0 
L 581 0 
L 581 3500 
L 1159 3500 
L 1159 2956 
Q 1341 3275 1631 3429 
Q 1922 3584 2338 3584 
Q 2397 3584 2469 3576 
Q 2541 3569 2628 3553 
L 2631 2963 
z
" transform="scale(0.015625)"/>
       </defs>
       <use xlink:href="#DejaVuSans-54"/>
       <use xlink:href="#DejaVuSans-68" x="61.083984"/>
       <use xlink:href="#DejaVuSans-75" x="124.462891"/>
       <use xlink:href="#DejaVuSans-72" x="187.841797"/>
       <use xlink:href="#DejaVuSans-73" x="228.955078"/>
       <use xlink:href="#DejaVuSans-64" x="281.054688"/>
       <use xlink:href="#DejaVuSans-61" x="344.53125"/>
       <use xlink:href="#DejaVuSans-79" x="405.810547"/>
      </g>
     </g>
    </g>
    <g id="xtick_5">
     <g id="line2d_9">
      <path d="M 625.418182 384.48 
L 625.418182 51.84 
" clip-path="url(#p40675b0ef5)" style="fill: none; stroke: #b0b0b0; stroke-width: 0.8; stroke-linecap: square"/>
     </g>
     <g id="line2d_10">
      <g>
       <use xlink:href="#m4bfe53add3" x="625.418182" y="384.48" style="stroke: #000000; stroke-width: 0.8"/>
      </g>
     </g>
     <g id="text_5">
      <!-- Friday -->
      <g transform="translate(610.262713 399.078438) scale(0.1 -0.1)">
       <defs>
        <path id="DejaVuSans-46" d="M 628 4666 
L 3309 4666 
L 3309 4134 
L 1259 4134 
L 1259 2759 
L 3109 2759 
L 3109 2228 
L 1259 2228 
L 1259 0 
L 628 0 
L 628 4666 
z
" transform="scale(0.015625)"/>
        <path id="DejaVuSans-69" d="M 603 3500 
L 1178 3500 
L 1178 0 
L 603 0 
L 603 3500 
z
M 603 4863 
L 1178 4863 
L 1178 4134 
L 603 4134 
L 603 4863 
z
" transform="scale(0.015625)"/>
       </defs>
       <use xlink:href="#DejaVuSans-46"/>
       <use xlink:href="#DejaVuSans-72" x="50.269531"/>
       <use xlink:href="#DejaVuSans-69" x="91.382812"/>
       <use xlink:href="#DejaVuSans-64" x="119.166016"/>
       <use xlink:href="#DejaVuSans-61" x="182.642578"/>
       <use xlink:href="#DejaVuSans-79" x="243.921875"/>
      </g>
     </g>
    </g>
    <g id="text_6">
     <!-- Day of the Week -->
     <g transform="translate(401.435938 412.756563) scale(0.1 -0.1)">
      <defs>
       <path id="DejaVuSans-44" d="M 1259 4147 
L 1259 519 
L 2022 519 
Q 2988 519 3436 956 
Q 3884 1394 3884 2338 
Q 3884 3275 3436 3711 
Q 2988 4147 2022 4147 
L 1259 4147 
z
M 628 4666 
L 1925 4666 
Q 3281 4666 3915 4102 
Q 4550 3538 4550 2338 
Q 4550 1131 3912 565 
Q 3275 0 1925 0 
L 628 0 
L 628 4666 
z
" transform="scale(0.015625)"/>
       <path id="DejaVuSans-20" transform="scale(0.015625)"/>
       <path id="DejaVuSans-66" d="M 2375 4863 
L 2375 4384 
L 1825 4384 
Q 1516 4384 1395 4259 
Q 1275 4134 1275 3809 
L 1275 3500 
L 2222 3500 
L 2222 3053 
L 1275 3053 
L 1275 0 
L 697 0 
L 697 3053 
L 147 3053 
L 147 3500 
L 697 3500 
L 697 3744 
Q 697 4328 969 4595 
Q 1241 4863 1831 4863 
L 2375 4863 
z
" transform="scale(0.015625)"/>
       <path id="DejaVuSans-74" d="M 1172 4494 
L 1172 3500 
L 2356 3500 
L 2356 3053 
L 1172 3053 
L 1172 1153 
Q 1172 725 1289 603 
Q 1406 481 1766 481 
L 2356 481 
L 2356 0 
L 1766 0 
Q 1100 0 847 248 
Q 594 497 594 1153 
L 594 3053 
L 172 3053 
L 172 3500 
L 594 3500 
L 594 4494 
L 1172 4494 
z
" transform="scale(0.015625)"/>
       <path id="DejaVuSans-6b" d="M 581 4863 
L 1159 4863 
L 1159 1991 
L 2875 3500 
L 3609 3500 
L 1753 1863 
L 3688 0 
L 2938 0 
L 1159 1709 
L 1159 0 
L 581 0 
L 581 4863 
z
" transform="scale(0.015625)"/>
      </defs>
      <use xlink:href="#DejaVuSans-44"/>
      <use xlink:href="#DejaVuSans-61" x="77.001953"/>
      <use xlink:href="#DejaVuSans-79" x="138.28125"/>
      <use xlink:href="#DejaVuSans-20" x="197.460938"/>
      <use xlink:href="#DejaVuSans-6f" x="229.248047"/>
      <use xlink:href="#DejaVuSans-66" x="290.429688"/>
      <use xlink:href="#DejaVuSans-20" x="325.634766"/>
      <use xlink:href="#DejaVuSans-74" x="357.421875"/>
      <use xlink:href="#DejaVuSans-68" x="396.630859"/>
      <use xlink:href="#DejaVuSans-65" x="460.009766"/>
      <use xlink:href="#DejaVuSans-20" x="521.533203"/>
      <use xlink:href="#DejaVuSans-57" x="553.320312"/>
      <use xlink:href="#DejaVuSans-65" x="646.322266"/>
      <use xlink:href="#DejaVuSans-65" x="707.845703"/>
      <use xlink:href="#DejaVuSans-6b" x="769.369141"/>
     </g>
    </g>
   </g>
   <g id="matplotlib.axis_2">
    <g id="ytick_1">
     <g id="line2d_11">
      <path d="M 108 369.360187 
L 777.6 369.360187 
" clip-path="url(#p40675b0ef5)" style="fill: none; stroke: #b0b0b0; stroke-width: 0.8; stroke-linecap: square"/>
     </g>
     <g id="line2d_12">
      <defs>
       <path id="mf2490a44f3" d="M 0 0 
L -3.5 0 
" style="stroke: #000000; stroke-width: 0.8"/>
      </defs>
      <g>
       <use xlink:href="#mf2490a44f3" x="108" y="369.360187" style="stroke: #000000; stroke-width: 0.8"/>
      </g>
     </g>
     <g id="text_7">
      <!-- Night -->
      <g transform="translate(74.134375 373.159406) scale(0.1 -0.1)">
       <defs>
        <path id="DejaVuSans-4e" d="M 628 4666 
L 1478 4666 
L 3547 763 
L 3547 4666 
L 4159 4666 
L 4159 0 
L 3309 0 
L 1241 3903 
L 1241 0 
L 628 0 
L 628 4666 
z
" transform="scale(0.015625)"/>
        <path id="DejaVuSans-67" d="M 2906 1791 
Q 2906 2416 2648 2759 
Q 2391 3103 1925 3103 
Q 1463 3103 1205 2759 
Q 947 2416 947 1791 
Q 947 1169 1205 825 
Q 1463 481 1925 481 
Q 2391 481 2648 825 
Q 2906 1169 2906 1791 
z
M 3481 434 
Q 3481 -459 3084 -895 
Q 2688 -1331 1869 -1331 
Q 1566 -1331 1297 -1286 
Q 1028 -1241 775 -1147 
L 775 -588 
Q 1028 -725 1275 -790 
Q 1522 -856 1778 -856 
Q 2344 -856 2625 -561 
Q 2906 -266 2906 331 
L 2906 616 
Q 2728 306 2450 153 
Q 2172 0 1784 0 
Q 1141 0 747 490 
Q 353 981 353 1791 
Q 353 2603 747 3093 
Q 1141 3584 1784 3584 
Q 2172 3584 2450 3431 
Q 2728 3278 2906 2969 
L 2906 3500 
L 3481 3500 
L 3481 434 
z
" transform="scale(0.015625)"/>
       </defs>
       <use xlink:href="#DejaVuSans-4e"/>
       <use xlink:href="#DejaVuSans-69" x="74.804688"/>
       <use xlink:href="#DejaVuSans-67" x="102.587891"/>
       <use xlink:href="#DejaVuSans-68" x="166.064453"/>
       <use xlink:href="#DejaVuSans-74" x="229.443359"/>
      </g>
     </g>
    </g>
    <g id="ytick_2">
     <g id="line2d_13">
      <path d="M 108 218.16 
L 777.6 218.16 
" clip-path="url(#p40675b0ef5)" style="fill: none; stroke: #b0b0b0; stroke-width: 0.8; stroke-linecap: square"/>
     </g>
     <g id="line2d_14">
      <g>
       <use xlink:href="#mf2490a44f3" x="108" y="218.16" style="stroke: #000000; stroke-width: 0.8"/>
      </g>
     </g>
     <g id="text_8">
      <!-- Horizon -->
      <g transform="translate(62.767187 221.959219) scale(0.1 -0.1)">
       <defs>
        <path id="DejaVuSans-48" d="M 628 4666 
L 1259 4666 
L 1259 2753 
L 3553 2753 
L 3553 4666 
L 4184 4666 
L 4184 0 
L 3553 0 
L 3553 2222 
L 1259 2222 
L 1259 0 
L 628 0 
L 628 4666 
z
" transform="scale(0.015625)"/>
        <path id="DejaVuSans-7a" d="M 353 3500 
L 3084 3500 
L 3084 2975 
L 922 459 
L 3084 459 
L 3084 0 
L 275 0 
L 275 525 
L 2438 3041 
L 353 3041 
L 353 3500 
z
" transform="scale(0.015625)"/>
       </defs>
       <use xlink:href="#DejaVuSans-48"/>
       <use xlink:href="#DejaVuSans-6f" x="75.195312"/>
       <use xlink:href="#DejaVuSans-72" x="136.376953"/>
       <use xlink:href="#DejaVuSans-69" x="177.490234"/>
       <use xlink:href="#DejaVuSans-7a" x="205.273438"/>
       <use xlink:href="#DejaVuSans-6f" x="257.763672"/>
       <use xlink:href="#DejaVuSans-6e" x="318.945312"/>
      </g>
     </g>
    </g>
    <g id="ytick_3">
     <g id="line2d_15">
      <path d="M 108 66.959813 
L 777.6 66.959813 
" clip-path="url(#p40675b0ef5)" style="fill: none; stroke: #b0b0b0; stroke-width: 0.8; stroke-linecap: square"/>
     </g>
     <g id="line2d_16">
      <g>
       <use xlink:href="#mf2490a44f3" x="108" y="66.959813" style="stroke: #000000; stroke-width: 0.8"/>
      </g>
     </g>
     <g id="text_9">
      <!-- Day -->
      <g transform="translate(81.253125 70.759032) scale(0.1 -0.1)">
       <use xlink:href="#DejaVuSans-44"/>
       <use xlink:href="#DejaVuSans-61" x="77.001953"/>
       <use xlink:href="#DejaVuSans-79" x="138.28125"/>
      </g>
     </g>
    </g>
    <g id="text_10">
     <!-- Sun Position -->
     <g transform="translate(56.6875 248.724844) rotate(-90) scale(0.1 -0.1)">
      <defs>
       <path id="DejaVuSans-53" d="M 3425 4513 
L 3425 3897 
Q 3066 4069 2747 4153 
Q 2428 4238 2131 4238 
Q 1616 4238 1336 4038 
Q 1056 3838 1056 3469 
Q 1056 3159 1242 3001 
Q 1428 2844 1947 2747 
L 2328 2669 
Q 3034 2534 3370 2195 
Q 3706 1856 3706 1288 
Q 3706 609 3251 259 
Q 2797 -91 1919 -91 
Q 1588 -91 1214 -16 
Q 841 59 441 206 
L 441 856 
Q 825 641 1194 531 
Q 1563 422 1919 422 
Q 2459 422 2753 634 
Q 3047 847 3047 1241 
Q 3047 1584 2836 1778 
Q 2625 1972 2144 2069 
L 1759 2144 
Q 1053 2284 737 2584 
Q 422 2884 422 3419 
Q 422 4038 858 4394 
Q 1294 4750 2059 4750 
Q 2388 4750 2728 4690 
Q 3069 4631 3425 4513 
z
" transform="scale(0.015625)"/>
       <path id="DejaVuSans-50" d="M 1259 4147 
L 1259 2394 
L 2053 2394 
Q 2494 2394 2734 2622 
Q 2975 2850 2975 3272 
Q 2975 3691 2734 3919 
Q 2494 4147 2053 4147 
L 1259 4147 
z
M 628 4666 
L 2053 4666 
Q 2838 4666 3239 4311 
Q 3641 3956 3641 3272 
Q 3641 2581 3239 2228 
Q 2838 1875 2053 1875 
L 1259 1875 
L 1259 0 
L 628 0 
L 628 4666 
z
" transform="scale(0.015625)"/>
      </defs>
      <use xlink:href="#DejaVuSans-53"/>
      <use xlink:href="#DejaVuSans-75" x="63.476562"/>
      <use xlink:href="#DejaVuSans-6e" x="126.855469"/>
      <use xlink:href="#DejaVuSans-20" x="190.234375"/>
      <use xlink:href="#DejaVuSans-50" x="222.021484"/>
      <use xlink:href="#DejaVuSans-6f" x="278.699219"/>
      <use xlink:href="#DejaVuSans-73" x="339.880859"/>
      <use xlink:href="#DejaVuSans-69" x="391.980469"/>
      <use xlink:href="#DejaVuSans-74" x="419.763672"/>
      <use xlink:href="#DejaVuSans-69" x="458.972656"/>
      <use xlink:href="#DejaVuSans-6f" x="486.755859"/>
      <use xlink:href="#DejaVuSans-6e" x="547.9375"/>
     </g>
    </g>
   </g>
   <g id="line2d_17">
    <path d="M 138.436364 218.16 
L 144.52973 171.391354 
L 147.576413 149.45301 
L 150.623096 129.209843 
L 153.060442 114.573192 
L 154.888452 104.658207 
L 156.716462 95.752689 
L 158.544472 87.935841 
L 160.372482 81.277186 
L 161.591155 77.511208 
L 162.809828 74.301418 
L 164.028501 71.660508 
L 165.247174 69.598924 
L 166.465848 68.124815 
L 167.075184 67.609978 
L 167.684521 67.244013 
L 168.293857 67.027282 
L 168.903194 66.96 
L 169.512531 67.042233 
L 170.121867 67.273899 
L 170.731204 67.65477 
L 171.340541 68.184469 
L 172.559214 69.688109 
L 173.777887 71.778873 
L 174.99656 74.448493 
L 176.215233 77.686412 
L 177.433907 81.479827 
L 179.261916 88.178101 
L 181.089926 96.032414 
L 182.917936 104.972909 
L 184.745946 114.920071 
L 187.183292 129.594781 
L 189.620639 145.669011 
L 192.667322 167.341127 
L 196.932678 199.662543 
L 206.072727 269.87351 
L 209.11941 291.484098 
L 211.556757 307.494217 
L 213.994103 322.092663 
L 215.822113 331.975372 
L 217.650123 340.845825 
L 219.478133 348.625131 
L 221.306143 355.244102 
L 222.524816 358.982606 
L 223.743489 362.164235 
L 224.962162 364.776407 
L 226.180835 366.808792 
L 227.399509 368.253354 
L 228.008845 368.753325 
L 228.618182 369.10438 
L 229.227518 369.306173 
L 229.836855 369.358505 
L 230.446192 369.261323 
L 231.055528 369.014723 
L 231.664865 368.61895 
L 232.883538 367.381596 
L 234.102211 365.554153 
L 235.320885 363.143847 
L 236.539558 360.160212 
L 237.758231 356.615044 
L 238.976904 352.522363 
L 240.804914 345.392734 
L 242.632924 337.131519 
L 244.460934 327.81219 
L 246.288943 317.517632 
L 248.72629 302.433931 
L 251.163636 286.01852 
L 254.210319 264.023394 
L 258.475676 231.456379 
L 266.397052 170.487951 
L 269.443735 148.607258 
L 272.490418 128.442608 
L 274.927764 113.88251 
L 276.755774 104.032175 
L 278.583784 95.196874 
L 280.411794 87.455187 
L 282.239803 80.875967 
L 283.458477 77.164973 
L 284.67715 74.011537 
L 285.895823 71.428128 
L 287.114496 69.424962 
L 288.33317 68.009961 
L 288.942506 67.524862 
L 289.551843 67.188719 
L 290.161179 67.001866 
L 290.770516 66.964486 
L 291.379853 67.076616 
L 291.989189 67.338147 
L 292.598526 67.748818 
L 293.817199 69.015813 
L 295.035872 70.87259 
L 296.254545 73.311807 
L 297.473219 76.323818 
L 298.691892 79.896713 
L 299.910565 84.016362 
L 301.738575 91.184789 
L 303.566585 99.482513 
L 305.394595 108.835735 
L 307.831941 122.803545 
L 310.269287 138.278191 
L 313.315971 159.366 
L 316.97199 186.537701 
L 329.768059 283.885675 
L 332.814742 304.397328 
L 335.252088 319.297332 
L 337.689435 332.59915 
L 339.517445 341.399211 
L 341.345455 349.103203 
L 343.173464 355.642607 
L 344.392138 359.326053 
L 345.610811 362.451266 
L 346.829484 365.005886 
L 348.048157 366.979813 
L 349.26683 368.36524 
L 349.876167 368.835462 
L 350.485504 369.156688 
L 351.09484 369.3286 
L 351.704177 369.351028 
L 352.313514 369.22395 
L 352.92285 368.947492 
L 353.532187 368.521926 
L 354.75086 367.225304 
L 355.969533 365.339212 
L 357.188206 362.871107 
L 358.40688 359.83075 
L 359.625553 356.230163 
L 360.844226 352.083586 
L 362.672236 344.876431 
L 364.500246 336.542281 
L 366.328256 327.155258 
L 368.765602 313.146981 
L 371.202948 297.637706 
L 374.249631 276.515645 
L 377.905651 249.317174 
L 390.70172 152.006439 
L 393.748403 131.532536 
L 396.185749 116.669714 
L 398.623096 103.410656 
L 400.451106 94.645922 
L 402.279115 86.979703 
L 404.107125 80.480179 
L 405.325799 76.824316 
L 406.544472 73.727358 
L 407.763145 71.201551 
L 408.981818 69.256884 
L 410.200491 67.901045 
L 410.809828 67.445704 
L 411.419165 67.139397 
L 412.028501 66.982429 
L 412.637838 66.974952 
L 413.247174 67.116977 
L 413.856511 67.408361 
L 414.465848 67.848816 
L 415.684521 69.175053 
L 416.903194 71.090443 
L 418.121867 73.587411 
L 419.340541 76.656084 
L 420.559214 80.284326 
L 421.777887 84.45779 
L 423.605897 91.703601 
L 425.433907 100.074095 
L 427.261916 109.494826 
L 429.699263 123.543432 
L 432.136609 139.087183 
L 435.183292 160.243287 
L 438.839312 187.468259 
L 451.635381 284.740793 
L 454.682064 305.176744 
L 457.11941 320.002236 
L 459.556757 333.218402 
L 461.384767 341.947722 
L 463.212776 349.576095 
L 465.040786 356.035674 
L 466.259459 359.663916 
L 467.478133 362.732589 
L 468.696806 365.229557 
L 469.915479 367.144947 
L 471.134152 368.471184 
L 471.743489 368.911639 
L 472.352826 369.203023 
L 472.962162 369.345048 
L 473.571499 369.337571 
L 474.180835 369.180603 
L 474.790172 368.874296 
L 475.399509 368.418955 
L 476.618182 367.063116 
L 477.836855 365.118449 
L 479.055528 362.592642 
L 480.274201 359.495684 
L 481.492875 355.839821 
L 482.711548 351.639512 
L 484.539558 344.355116 
L 486.367568 335.948361 
L 488.195577 326.494015 
L 490.632924 312.405219 
L 493.07027 296.827146 
L 496.116953 275.637209 
L 499.772973 248.386004 
L 511.959705 155.447488 
L 515.006388 134.677289 
L 517.443735 119.521151 
L 519.881081 105.923717 
L 521.709091 96.878823 
L 523.537101 88.912585 
L 525.365111 82.095851 
L 526.583784 78.220353 
L 527.802457 74.898239 
L 529.02113 72.142646 
L 530.239803 69.96447 
L 531.458477 68.372325 
L 532.67715 67.372508 
L 533.286486 67.09605 
L 533.895823 66.968972 
L 534.50516 66.9914 
L 535.114496 67.163312 
L 535.723833 67.484538 
L 536.33317 67.95476 
L 537.551843 69.340187 
L 538.770516 71.314114 
L 539.989189 73.868734 
L 541.207862 76.993947 
L 542.426536 80.677393 
L 543.645209 84.904506 
L 545.473219 92.227416 
L 547.301229 100.670348 
L 549.129238 110.158215 
L 551.566585 124.287062 
L 554.003931 139.899303 
L 557.050614 161.122865 
L 560.706634 188.400032 
L 572.893366 281.304859 
L 575.940049 302.038735 
L 578.377396 317.15873 
L 580.814742 330.714333 
L 582.642752 339.724516 
L 584.470762 347.653525 
L 586.298771 354.430839 
L 587.517445 358.279013 
L 588.736118 361.573095 
L 589.954791 364.300058 
L 591.173464 366.449117 
L 592.392138 368.011776 
L 593.610811 368.981853 
L 594.220147 369.243384 
L 594.829484 369.355514 
L 595.438821 369.318134 
L 596.048157 369.131281 
L 596.657494 368.795138 
L 597.26683 368.310039 
L 598.485504 366.895038 
L 599.704177 364.891872 
L 600.92285 362.308463 
L 602.141523 359.155027 
L 603.360197 355.444033 
L 604.57887 351.190157 
L 606.40688 343.828808 
L 608.234889 335.349781 
L 610.062899 325.828487 
L 612.500246 311.659728 
L 614.937592 296.013474 
L 617.984275 274.756498 
L 621.640295 247.453638 
L 633.827027 154.583419 
L 636.87371 133.886069 
L 639.311057 118.802368 
L 641.748403 105.28873 
L 643.576413 96.313346 
L 645.404423 88.421647 
L 647.232432 81.683819 
L 648.451106 77.863006 
L 649.669779 74.596989 
L 650.888452 71.898684 
L 652.107125 69.778762 
L 653.325799 68.245605 
L 654.544472 67.305277 
L 655.153808 67.058677 
L 655.763145 66.961495 
L 656.372482 67.013827 
L 656.981818 67.21562 
L 657.591155 67.566675 
L 658.200491 68.066646 
L 659.419165 69.511208 
L 660.637838 71.543593 
L 661.856511 74.155765 
L 663.075184 77.337394 
L 664.293857 81.075898 
L 665.512531 85.356494 
L 667.340541 92.756211 
L 669.16855 101.271249 
L 670.99656 110.825876 
L 673.433907 125.034406 
L 675.871253 140.714519 
L 678.917936 162.004699 
L 682.573956 189.332982 
L 694.760688 282.167674 
L 697.807371 302.828292 
L 700.244717 317.875552 
L 702.682064 331.347091 
L 704.510074 340.287586 
L 706.338084 348.141899 
L 708.166093 354.840173 
L 709.384767 358.633588 
L 710.60344 361.871507 
L 711.822113 364.541127 
L 713.040786 366.631891 
L 714.259459 368.135531 
L 714.868796 368.66523 
L 715.478133 369.046101 
L 716.087469 369.277767 
L 716.696806 369.36 
L 717.306143 369.292718 
L 717.915479 369.075987 
L 718.524816 368.710022 
L 719.134152 368.195185 
L 720.352826 366.721076 
L 721.571499 364.659492 
L 722.790172 362.018582 
L 724.008845 358.808792 
L 725.227518 355.042814 
L 726.446192 350.735541 
L 728.274201 343.297529 
L 730.102211 334.746565 
L 731.930221 325.158699 
L 734.367568 310.910539 
L 736.804914 295.196722 
L 739.851597 273.873549 
L 743.507617 246.520113 
L 747.163636 218.16 
L 747.163636 218.16 
" clip-path="url(#p40675b0ef5)" style="fill: none; stroke: #ffa500; stroke-width: 1.5; stroke-linecap: square"/>
   </g>
   <g id="patch_3">
    <path d="M 108 384.48 
L 108 51.84 
" style="fill: none; stroke: #000000; stroke-width: 0.8; stroke-linejoin: miter; stroke-linecap: square"/>
   </g>
   <g id="patch_4">
    <path d="M 777.6 384.48 
L 777.6 51.84 
" style="fill: none; stroke: #000000; stroke-width: 0.8; stroke-linejoin: miter; stroke-linecap: square"/>
   </g>
   <g id="patch_5">
    <path d="M 108 384.48 
L 777.6 384.48 
" style="fill: none; stroke: #000000; stroke-width: 0.8; stroke-linejoin: miter; stroke-linecap: square"/>
   </g>
   <g id="patch_6">
    <path d="M 108 51.84 
L 777.6 51.84 
" style="fill: none; stroke: #000000; stroke-width: 0.8; stroke-linejoin: miter; stroke-linecap: square"/>
   </g>
   <g id="text_11">
    <!-- Sun Cycle from Monday to Friday with Day and Night -->
    <g transform="translate(283.98375 45.84) scale(0.12 -0.12)">
     <defs>
      <path id="DejaVuSans-43" d="M 4122 4306 
L 4122 3641 
Q 3803 3938 3442 4084 
Q 3081 4231 2675 4231 
Q 1875 4231 1450 3742 
Q 1025 3253 1025 2328 
Q 1025 1406 1450 917 
Q 1875 428 2675 428 
Q 3081 428 3442 575 
Q 3803 722 4122 1019 
L 4122 359 
Q 3791 134 3420 21 
Q 3050 -91 2638 -91 
Q 1578 -91 968 557 
Q 359 1206 359 2328 
Q 359 3453 968 4101 
Q 1578 4750 2638 4750 
Q 3056 4750 3426 4639 
Q 3797 4528 4122 4306 
z
" transform="scale(0.015625)"/>
      <path id="DejaVuSans-63" d="M 3122 3366 
L 3122 2828 
Q 2878 2963 2633 3030 
Q 2388 3097 2138 3097 
Q 1578 3097 1268 2742 
Q 959 2388 959 1747 
Q 959 1106 1268 751 
Q 1578 397 2138 397 
Q 2388 397 2633 464 
Q 2878 531 3122 666 
L 3122 134 
Q 2881 22 2623 -34 
Q 2366 -91 2075 -91 
Q 1284 -91 818 406 
Q 353 903 353 1747 
Q 353 2603 823 3093 
Q 1294 3584 2113 3584 
Q 2378 3584 2631 3529 
Q 2884 3475 3122 3366 
z
" transform="scale(0.015625)"/>
      <path id="DejaVuSans-6c" d="M 603 4863 
L 1178 4863 
L 1178 0 
L 603 0 
L 603 4863 
z
" transform="scale(0.015625)"/>
      <path id="DejaVuSans-6d" d="M 3328 2828 
Q 3544 3216 3844 3400 
Q 4144 3584 4550 3584 
Q 5097 3584 5394 3201 
Q 5691 2819 5691 2113 
L 5691 0 
L 5113 0 
L 5113 2094 
Q 5113 2597 4934 2840 
Q 4756 3084 4391 3084 
Q 3944 3084 3684 2787 
Q 3425 2491 3425 1978 
L 3425 0 
L 2847 0 
L 2847 2094 
Q 2847 2600 2669 2842 
Q 2491 3084 2119 3084 
Q 1678 3084 1418 2786 
Q 1159 2488 1159 1978 
L 1159 0 
L 581 0 
L 581 3500 
L 1159 3500 
L 1159 2956 
Q 1356 3278 1631 3431 
Q 1906 3584 2284 3584 
Q 2666 3584 2933 3390 
Q 3200 3197 3328 2828 
z
" transform="scale(0.015625)"/>
      <path id="DejaVuSans-77" d="M 269 3500 
L 844 3500 
L 1563 769 
L 2278 3500 
L 2956 3500 
L 3675 769 
L 4391 3500 
L 4966 3500 
L 4050 0 
L 3372 0 
L 2619 2869 
L 1863 0 
L 1184 0 
L 269 3500 
z
" transform="scale(0.015625)"/>
     </defs>
     <use xlink:href="#DejaVuSans-53"/>
     <use xlink:href="#DejaVuSans-75" x="63.476562"/>
     <use xlink:href="#DejaVuSans-6e" x="126.855469"/>
     <use xlink:href="#DejaVuSans-20" x="190.234375"/>
     <use xlink:href="#DejaVuSans-43" x="222.021484"/>
     <use xlink:href="#DejaVuSans-79" x="291.845703"/>
     <use xlink:href="#DejaVuSans-63" x="351.025391"/>
     <use xlink:href="#DejaVuSans-6c" x="406.005859"/>
     <use xlink:href="#DejaVuSans-65" x="433.789062"/>
     <use xlink:href="#DejaVuSans-20" x="495.3125"/>
     <use xlink:href="#DejaVuSans-66" x="527.099609"/>
     <use xlink:href="#DejaVuSans-72" x="562.304688"/>
     <use xlink:href="#DejaVuSans-6f" x="601.167969"/>
     <use xlink:href="#DejaVuSans-6d" x="662.349609"/>
     <use xlink:href="#DejaVuSans-20" x="759.761719"/>
     <use xlink:href="#DejaVuSans-4d" x="791.548828"/>
     <use xlink:href="#DejaVuSans-6f" x="877.828125"/>
     <use xlink:href="#DejaVuSans-6e" x="939.009766"/>
     <use xlink:href="#DejaVuSans-64" x="1002.388672"/>
     <use xlink:href="#DejaVuSans-61" x="1065.865234"/>
     <use xlink:href="#DejaVuSans-79" x="1127.144531"/>
     <use xlink:href="#DejaVuSans-20" x="1186.324219"/>
     <use xlink:href="#DejaVuSans-74" x="1218.111328"/>
     <use xlink:href="#DejaVuSans-6f" x="1257.320312"/>
     <use xlink:href="#DejaVuSans-20" x="1318.501953"/>
     <use xlink:href="#DejaVuSans-46" x="1350.289062"/>
     <use xlink:href="#DejaVuSans-72" x="1400.558594"/>
     <use xlink:href="#DejaVuSans-69" x="1441.671875"/>
     <use xlink:href="#DejaVuSans-64" x="1469.455078"/>
     <use xlink:href="#DejaVuSans-61" x="1532.931641"/>
     <use xlink:href="#DejaVuSans-79" x="1594.210938"/>
     <use xlink:href="#DejaVuSans-20" x="1653.390625"/>
     <use xlink:href="#DejaVuSans-77" x="1685.177734"/>
     <use xlink:href="#DejaVuSans-69" x="1766.964844"/>
     <use xlink:href="#DejaVuSans-74" x="1794.748047"/>
     <use xlink:href="#DejaVuSans-68" x="1833.957031"/>
     <use xlink:href="#DejaVuSans-20" x="1897.335938"/>
     <use xlink:href="#DejaVuSans-44" x="1929.123047"/>
     <use xlink:href="#DejaVuSans-61" x="2006.125"/>
     <use xlink:href="#DejaVuSans-79" x="2067.404297"/>
     <use xlink:href="#DejaVuSans-20" x="2126.583984"/>
     <use xlink:href="#DejaVuSans-61" x="2158.371094"/>
     <use xlink:href="#DejaVuSans-6e" x="2219.650391"/>
     <use xlink:href="#DejaVuSans-64" x="2283.029297"/>
     <use xlink:href="#DejaVuSans-20" x="2346.505859"/>
     <use xlink:href="#DejaVuSans-4e" x="2378.292969"/>
     <use xlink:href="#DejaVuSans-69" x="2453.097656"/>
     <use xlink:href="#DejaVuSans-67" x="2480.880859"/>
     <use xlink:href="#DejaVuSans-68" x="2544.357422"/>
     <use xlink:href="#DejaVuSans-74" x="2607.736328"/>
    </g>
   </g>
   <g id="legend_1">
    <g id="patch_7">
     <path d="M 625.840625 103.874375 
L 770.6 103.874375 
Q 772.6 103.874375 772.6 101.874375 
L 772.6 58.84 
Q 772.6 56.84 770.6 56.84 
L 625.840625 56.84 
Q 623.840625 56.84 623.840625 58.84 
L 623.840625 101.874375 
Q 623.840625 103.874375 625.840625 103.874375 
z
" style="fill: #ffffff; opacity: 0.8; stroke: #cccccc; stroke-linejoin: miter"/>
    </g>
    <g id="line2d_18">
     <path d="M 627.840625 64.938437 
L 637.840625 64.938437 
L 647.840625 64.938437 
" style="fill: none; stroke: #ffa500; stroke-width: 1.5; stroke-linecap: square"/>
    </g>
    <g id="text_12">
     <!-- Sun Cycle (Sine Wave) -->
     <g transform="translate(655.840625 68.438437) scale(0.1 -0.1)">
      <defs>
       <path id="DejaVuSans-28" d="M 1984 4856 
Q 1566 4138 1362 3434 
Q 1159 2731 1159 2009 
Q 1159 1288 1364 580 
Q 1569 -128 1984 -844 
L 1484 -844 
Q 1016 -109 783 600 
Q 550 1309 550 2009 
Q 550 2706 781 3412 
Q 1013 4119 1484 4856 
L 1984 4856 
z
" transform="scale(0.015625)"/>
       <path id="DejaVuSans-76" d="M 191 3500 
L 800 3500 
L 1894 563 
L 2988 3500 
L 3597 3500 
L 2284 0 
L 1503 0 
L 191 3500 
z
" transform="scale(0.015625)"/>
       <path id="DejaVuSans-29" d="M 513 4856 
L 1013 4856 
Q 1481 4119 1714 3412 
Q 1947 2706 1947 2009 
Q 1947 1309 1714 600 
Q 1481 -109 1013 -844 
L 513 -844 
Q 928 -128 1133 580 
Q 1338 1288 1338 2009 
Q 1338 2731 1133 3434 
Q 928 4138 513 4856 
z
" transform="scale(0.015625)"/>
      </defs>
      <use xlink:href="#DejaVuSans-53"/>
      <use xlink:href="#DejaVuSans-75" x="63.476562"/>
      <use xlink:href="#DejaVuSans-6e" x="126.855469"/>
      <use xlink:href="#DejaVuSans-20" x="190.234375"/>
      <use xlink:href="#DejaVuSans-43" x="222.021484"/>
      <use xlink:href="#DejaVuSans-79" x="291.845703"/>
      <use xlink:href="#DejaVuSans-63" x="351.025391"/>
      <use xlink:href="#DejaVuSans-6c" x="406.005859"/>
      <use xlink:href="#DejaVuSans-65" x="433.789062"/>
      <use xlink:href="#DejaVuSans-20" x="495.3125"/>
      <use xlink:href="#DejaVuSans-28" x="527.099609"/>
      <use xlink:href="#DejaVuSans-53" x="566.113281"/>
      <use xlink:href="#DejaVuSans-69" x="629.589844"/>
      <use xlink:href="#DejaVuSans-6e" x="657.373047"/>
      <use xlink:href="#DejaVuSans-65" x="720.751953"/>
      <use xlink:href="#DejaVuSans-20" x="782.275391"/>
      <use xlink:href="#DejaVuSans-57" x="814.0625"/>
      <use xlink:href="#DejaVuSans-61" x="906.564453"/>
      <use xlink:href="#DejaVuSans-76" x="967.84375"/>
      <use xlink:href="#DejaVuSans-65" x="1027.023438"/>
      <use xlink:href="#DejaVuSans-29" x="1088.546875"/>
     </g>
    </g>
    <g id="patch_8">
     <path d="M 627.840625 83.116562 
L 647.840625 83.116562 
L 647.840625 76.116562 
L 627.840625 76.116562 
z
" style="fill: #00008b; fill-opacity: 0.3; stroke: #00008b; stroke-opacity: 0.3; stroke-linejoin: miter"/>
    </g>
    <g id="text_13">
     <!-- Night -->
     <g transform="translate(655.840625 83.116562) scale(0.1 -0.1)">
      <use xlink:href="#DejaVuSans-4e"/>
      <use xlink:href="#DejaVuSans-69" x="74.804688"/>
      <use xlink:href="#DejaVuSans-67" x="102.587891"/>
      <use xlink:href="#DejaVuSans-68" x="166.064453"/>
      <use xlink:href="#DejaVuSans-74" x="229.443359"/>
     </g>
    </g>
    <g id="patch_9">
     <path d="M 627.840625 97.794687 
L 647.840625 97.794687 
L 647.840625 90.794687 
L 627.840625 90.794687 
z
" style="fill: #87ceeb; fill-opacity: 0.2; stroke: #87ceeb; stroke-opacity: 0.2; stroke-linejoin: miter"/>
    </g>
    <g id="text_14">
     <!-- Day -->
     <g transform="translate(655.840625 97.794687) scale(0.1 -0.1)">
      <use xlink:href="#DejaVuSans-44"/>
      <use xlink:href="#DejaVuSans-61" x="77.001953"/>
      <use xlink:href="#DejaVuSans-79" x="138.28125"/>
     </g>
    </g>
   </g>
  </g>
 </g>
 <defs>
  <clipPath id="p40675b0ef5">
   <rect x="108" y="51.84" width="669.6" height="332.64"/>
  </clipPath>
 </defs>
</svg>
